<svg xmlns="http://www.w3.org/2000/svg" width="24" height="24" viewBox="0 0 24 24" fill="none">
  <path d="M19.5298 10.5301C19.3838 10.6761 19.1918 10.7501 18.9998 10.7501C18.8078 10.7501 18.6158 10.6771 18.4698 10.5301L12.7498 4.81017V21.0001C12.7498 21.4141 12.4138 21.7501 11.9998 21.7501C11.5858 21.7501 11.2498 21.4141 11.2498 21.0001V4.81115L5.52981 10.5311C5.23681 10.8241 4.76177 10.8241 4.46877 10.5311C4.17577 10.2381 4.17577 9.76309 4.46877 9.47009L11.4688 2.47009C11.5378 2.40109 11.6207 2.34622 11.7127 2.30822C11.8957 2.23222 12.1027 2.23222 12.2857 2.30822C12.3777 2.34622 12.4608 2.40109 12.5298 2.47009L19.5298 9.47009C19.8228 9.76309 19.8228 10.2371 19.5298 10.5301Z" fill="#D8E9FE"/>
</svg>