<svg xmlns="http://www.w3.org/2000/svg" width="21" height="21" viewBox="0 0 21 21" fill="none">
    <path
        d="M17.7231 14.1615C18.0398 12.8782 18.2148 11.554 18.2148 10.2998C18.2148 5.8198 14.5698 2.1748 10.0898 2.1748C5.60984 2.1748 1.96484 5.8198 1.96484 10.2998C1.96484 11.554 2.13992 12.8773 2.45658 14.1615C2.46242 14.189 2.46151 14.2164 2.46818 14.2431C2.48318 14.3039 2.50321 14.3599 2.51904 14.4199C2.53738 14.4907 2.55155 14.5631 2.57072 14.6331C2.57489 14.6498 2.58729 14.6606 2.59229 14.6764C2.67145 14.9648 2.74744 15.2572 2.83744 15.5297L3.23153 16.8074C3.53486 17.7899 4.44474 18.424 5.42391 18.424C5.64558 18.424 5.86976 18.3914 6.09143 18.3239L6.89567 18.0781C7.26817 17.9648 7.57476 17.7123 7.7581 17.3673C7.9406 17.0231 7.97909 16.6289 7.86409 16.2564L6.62732 12.2098C6.51315 11.8373 6.26146 11.5315 5.91646 11.3482C5.57146 11.1649 5.17481 11.1274 4.80481 11.2424L4.0199 11.4831C3.75573 11.5639 3.51982 11.694 3.31148 11.8531C3.25315 11.3281 3.21484 10.8057 3.21484 10.299C3.21484 6.50816 6.29901 3.42399 10.0898 3.42399C13.8807 3.42399 16.9648 6.50816 16.9648 10.299C16.9648 10.8065 16.9265 11.329 16.8682 11.854C16.6599 11.6948 16.424 11.5647 16.1598 11.4839L15.3749 11.2432C15.0057 11.129 14.6091 11.1665 14.2632 11.349C13.9191 11.5315 13.6665 11.8373 13.5524 12.2106L12.3156 16.2556C12.2006 16.6281 12.2391 17.0231 12.4216 17.3665C12.6049 17.7115 12.9115 17.9631 13.2832 18.0773L14.0883 18.3231C14.3099 18.3914 14.5341 18.4232 14.7558 18.4232C15.7349 18.4232 16.6448 17.7891 16.9482 16.8066L17.3406 15.5356C17.4323 15.2589 17.5064 14.9714 17.5839 14.6856C17.5914 14.6673 17.6031 14.6523 17.609 14.6323C17.6281 14.5623 17.6423 14.4899 17.6606 14.4191C17.6765 14.3591 17.6965 14.3015 17.7115 14.2415C17.7182 14.2156 17.7173 14.189 17.7231 14.1615ZM4.3857 12.679L5.17061 12.4381C5.19228 12.4314 5.21309 12.4289 5.23226 12.4289C5.27559 12.4289 5.30992 12.4431 5.32992 12.4531C5.35825 12.4681 5.40977 12.5048 5.43144 12.5756L6.66821 16.6222C6.68988 16.6931 6.66818 16.7514 6.65234 16.7797C6.63734 16.808 6.60072 16.8589 6.52905 16.8814L5.72563 17.1274C5.17563 17.2957 4.59393 16.9848 4.42476 16.4373L4.02661 15.1472C3.91328 14.8064 3.81654 14.4549 3.72571 14.0999C3.70904 14.0357 3.69475 13.9716 3.67891 13.9074C3.56891 13.3732 3.86903 12.8381 4.3857 12.679ZM16.1506 15.149C16.149 15.1532 16.1482 15.1573 16.1466 15.1615L15.7523 16.4389C15.5839 16.9864 15.0006 17.2957 14.4514 17.129L13.6474 16.8831C13.5757 16.8614 13.5391 16.8107 13.5249 16.7815C13.5091 16.7532 13.4874 16.6947 13.509 16.623L14.7456 12.5772C14.7673 12.5056 14.819 12.4689 14.8473 12.4539C14.8673 12.4431 14.9015 12.4297 14.9448 12.4297C14.964 12.4297 14.9848 12.4322 15.0064 12.4389L15.7915 12.6806C16.3082 12.8389 16.6082 13.374 16.4965 13.9098C16.4798 13.974 16.4666 14.039 16.4499 14.1023C16.3616 14.4565 16.264 14.809 16.1506 15.149Z"
        fill="white" />
</svg>