<svg xmlns="http://www.w3.org/2000/svg" width="21" height="21" viewBox="0 0 21 21" fill="none">
    <path
        d="M14.0482 6.35815V3.63314C14.0482 2.82897 13.394 2.1748 12.5898 2.1748H7.58984C6.78568 2.1748 6.13151 2.82897 6.13151 3.63314V6.35815C5.08651 6.43899 4.46484 7.11647 4.46484 8.21647V15.2998C4.46484 17.3148 5.57484 18.4248 7.58984 18.4248H12.5898C14.6048 18.4248 15.7148 17.3148 15.7148 15.2998V8.21647C15.7148 7.11564 15.0932 6.43899 14.0482 6.35815ZM7.58984 3.4248H12.5898C12.7048 3.4248 12.7982 3.51814 12.7982 3.63314V6.34147H7.38151V3.63314C7.38151 3.51814 7.47484 3.4248 7.58984 3.4248ZM14.4648 15.2998C14.4648 16.614 13.904 17.1748 12.5898 17.1748H7.58984C6.27568 17.1748 5.71484 16.614 5.71484 15.2998V8.21647C5.71484 7.72564 5.84901 7.59147 6.33984 7.59147H13.8398C14.3307 7.59147 14.4648 7.72564 14.4648 8.21647V15.2998ZM11.9648 14.4665C11.9648 14.8115 11.6848 15.0915 11.3398 15.0915H8.83984C8.49484 15.0915 8.21484 14.8115 8.21484 14.4665C8.21484 14.1215 8.49484 13.8415 8.83984 13.8415H11.3398C11.6848 13.8415 11.9648 14.1215 11.9648 14.4665ZM8.21484 4.88314C8.21484 4.53814 8.49484 4.25814 8.83984 4.25814C9.18484 4.25814 9.46484 4.53814 9.46484 4.88314C9.46484 5.22814 9.18484 5.50814 8.83984 5.50814C8.49484 5.50814 8.21484 5.22814 8.21484 4.88314ZM10.7148 4.88314C10.7148 4.53814 10.9948 4.25814 11.3398 4.25814C11.6848 4.25814 11.9648 4.53814 11.9648 4.88314C11.9648 5.22814 11.6848 5.50814 11.3398 5.50814C10.9948 5.50814 10.7148 5.22814 10.7148 4.88314Z"
        fill="white" />
</svg>