<svg xmlns="http://www.w3.org/2000/svg" width="24" height="24" viewBox="0 0 24 24" fill="none">
    <path
        d="M21.353 20.646L17.344 16.637C18.68 15.135 19.5 13.164 19.5 11C19.5 6.313 15.687 2.5 11 2.5C6.313 2.5 2.5 6.313 2.5 11C2.5 15.687 6.313 19.5 11 19.5C13.164 19.5 15.135 18.68 16.637 17.344L20.646 21.353C20.744 21.451 20.872 21.499 21 21.499C21.128 21.499 21.256 21.45 21.354 21.353C21.548 21.158 21.548 20.842 21.353 20.646ZM3.49902 11C3.49902 6.865 6.86302 3.5 10.999 3.5C15.135 3.5 18.499 6.865 18.499 11C18.499 15.135 15.135 18.5 10.999 18.5C6.86302 18.5 3.49902 15.135 3.49902 11Z"
        fill="#D8E9FE" />
</svg>