<svg xmlns="http://www.w3.org/2000/svg" width="21" height="21" viewBox="0 0 21 21" fill="none">
    <path
        d="M17.6198 3.92328C17.6189 3.92328 17.619 3.9233 17.6181 3.92247C16.1998 3.24997 14.6274 3.01412 12.9441 3.21996C11.7324 3.36912 10.7073 4.06158 10.0898 5.03158C9.47151 4.06241 8.4473 3.36912 7.23564 3.21996C5.5498 3.01412 3.97906 3.24997 2.56156 3.92247C2.56156 3.92247 2.56158 3.92247 2.56075 3.92247C2.19908 4.09414 1.96484 4.46657 1.96484 4.87157V15.7091C1.96484 16.0374 2.11478 16.3383 2.37561 16.5358C2.63561 16.7333 2.98243 16.7957 3.29826 16.7074C5.72159 16.0191 7.77068 16.3108 9.74235 17.625C9.75068 17.6308 9.76067 17.6325 9.769 17.6375C9.77817 17.6425 9.78484 17.6508 9.79484 17.6558C9.80401 17.6608 9.81477 17.6583 9.82393 17.6633C9.9081 17.7033 9.99736 17.7299 10.089 17.7299C10.1807 17.7299 10.2698 17.7033 10.3539 17.6633C10.3631 17.6591 10.3741 17.6608 10.3832 17.6558C10.3924 17.6508 10.3999 17.6433 10.4082 17.6375C10.4166 17.6325 10.4266 17.6308 10.4349 17.625C12.4066 16.31 14.4548 16.0183 16.879 16.7066C17.1957 16.7966 17.5406 16.7333 17.8014 16.5358C18.0623 16.3391 18.2124 16.0374 18.2124 15.7091V4.87157C18.2149 4.46823 17.9814 4.09578 17.6198 3.92328ZM5.7006 15.0991C4.89977 15.0991 4.07234 15.2116 3.21484 15.4341V4.99659C4.39818 4.46075 5.66742 4.28499 7.08325 4.45999C8.44159 4.62665 9.46484 5.78493 9.46484 7.15326V16.0124C8.26901 15.4032 7.0206 15.0991 5.7006 15.0991ZM16.9648 15.4349C14.6915 14.8441 12.6365 15.0333 10.7148 16.0141V7.15499C10.7148 5.78583 11.7389 4.62828 13.0964 4.46161C13.4481 4.41828 13.7907 4.39661 14.1249 4.39661C15.1374 4.39661 16.0749 4.59582 16.964 4.99832V15.4349H16.9648ZM12.5898 7.31328H15.0898C15.4348 7.31328 15.7148 7.59328 15.7148 7.93828C15.7148 8.28328 15.4348 8.56328 15.0898 8.56328H12.5898C12.2448 8.56328 11.9648 8.28328 11.9648 7.93828C11.9648 7.59328 12.2448 7.31328 12.5898 7.31328ZM14.8815 10.4383C14.8815 10.7833 14.6015 11.0633 14.2565 11.0633H12.5898C12.2448 11.0633 11.9648 10.7833 11.9648 10.4383C11.9648 10.0933 12.2448 9.81328 12.5898 9.81328H14.2565C14.6015 9.81328 14.8815 10.0933 14.8815 10.4383Z"
        fill="white" />
</svg>