<svg width="24" height="25" viewBox="0 0 24 25" fill="none" xmlns="http://www.w3.org/2000/svg">
<path d="M16.03 9.88599C16.323 10.179 16.323 10.654 16.03 10.947L11.363 15.614C11.217 15.76 11.025 15.834 10.833 15.834C10.641 15.834 10.449 15.761 10.303 15.614L7.96997 13.281C7.67697 12.988 7.67697 12.513 7.96997 12.22C8.26297 11.927 8.73801 11.927 9.03101 12.22L10.834 14.023L14.97 9.88702C15.263 9.59402 15.737 9.59399 16.03 9.88599ZM21.75 7.125V18.375C21.75 21.035 20.285 22.5 17.625 22.5H6.375C3.715 22.5 2.25 21.035 2.25 18.375V7.125C2.25 4.465 3.715 3 6.375 3H17.625C20.285 3 21.75 4.465 21.75 7.125ZM20.25 7.125C20.25 5.285 19.465 4.5 17.625 4.5H6.375C4.535 4.5 3.75 5.285 3.75 7.125V18.375C3.75 20.215 4.535 21 6.375 21H17.625C19.465 21 20.25 20.215 20.25 18.375V7.125Z" fill="#A3E9FF"/>
</svg>
