<svg width="25" height="24" viewBox="0 0 25 24" fill="none" xmlns="http://www.w3.org/2000/svg">
<path d="M20 17C20 17.065 19.9869 17.1299 19.9609 17.1909C19.9099 17.3139 19.813 17.4109 19.69 17.4619C19.629 17.4869 19.564 17.501 19.499 17.501H9.49903C9.22303 17.501 8.99903 17.277 8.99903 17.001C8.99903 16.725 9.22303 16.501 9.49903 16.501H18.292L6.14601 4.35499C5.95101 4.15999 5.95101 3.84296 6.14601 3.64796C6.34101 3.45296 6.65804 3.45296 6.85304 3.64796L18.999 15.794V7.00001C18.999 6.72401 19.223 6.50001 19.499 6.50001C19.775 6.50001 19.999 6.72401 19.999 7.00001V17H20Z" fill="#23314F"/>
</svg>
