<svg width="41" height="40" viewBox="0 0 41 40" fill="none" xmlns="http://www.w3.org/2000/svg">
<g clip-path="url(#clip0_1462_15469)">
<path d="M21 37.5C11.35 37.5 3.5 29.65 3.5 20C3.5 10.35 11.35 2.5 21 2.5C30.65 2.5 38.5 10.35 38.5 20C38.5 29.65 30.65 37.5 21 37.5ZM21 4.16667C12.2667 4.16667 5.16667 11.2667 5.16667 20C5.16667 28.7333 12.2667 35.8333 21 35.8333C29.7333 35.8333 36.8333 28.7333 36.8333 20C36.8333 11.2667 29.7333 4.16667 21 4.16667ZM27.6667 16.6667C27.6667 15.2167 26.9667 14.1667 26 14.1667C25.0333 14.1667 24.3333 15.2167 24.3333 16.6667C24.3333 18.1167 25.0333 19.1667 26 19.1667C26.9667 19.1667 27.6667 18.1167 27.6667 16.6667ZM17.6667 16.6667C17.6667 15.2167 16.9667 14.1667 16 14.1667C15.0333 14.1667 14.3333 15.2167 14.3333 16.6667C14.3333 18.1167 15.0333 19.1667 16 19.1667C16.9667 19.1667 17.6667 18.1167 17.6667 16.6667ZM28.1667 29C28.5333 28.7167 28.6 28.2 28.3333 27.8333C26.6 25.5333 23.8667 24.1667 21.0167 24.1667C18.1667 24.1667 15.45 25.5 13.6833 27.8333C13.4 28.2 13.4833 28.7167 13.85 29C14.2167 29.2833 14.7333 29.2 15.0167 28.8333C16.4667 26.9167 18.65 25.8333 21.0167 25.8333C23.3833 25.8333 25.5833 26.95 27 28.8333C27.1667 29.05 27.4167 29.1667 27.6667 29.1667C27.85 29.1667 28.0167 29.1167 28.1667 29Z" fill="white"/>
</g>
<defs>
<clipPath id="clip0_1462_15469">
<rect width="40" height="40" fill="white" transform="translate(0.5)"/>
</clipPath>
</defs>
</svg>
