<svg width="24" height="24" viewBox="0 0 24 24" fill="none" xmlns="http://www.w3.org/2000/svg">
<path d="M18 3.91638H16.75V3.16638C16.75 2.75238 16.414 2.41638 16 2.41638C15.586 2.41638 15.25 2.75238 15.25 3.16638V3.91638H8.75V3.16638C8.75 2.75238 8.414 2.41638 8 2.41638C7.586 2.41638 7.25 2.75238 7.25 3.16638V3.91638H6C3.582 3.91638 2.25 5.24838 2.25 7.66638V18.1664C2.25 20.5844 3.582 21.9164 6 21.9164H18C20.418 21.9164 21.75 20.5844 21.75 18.1664V7.66638C21.75 5.24838 20.418 3.91638 18 3.91638ZM6 5.41638H7.25V6.16638C7.25 6.58038 7.586 6.91638 8 6.91638C8.414 6.91638 8.75 6.58038 8.75 6.16638V5.41638H15.25V6.16638C15.25 6.58038 15.586 6.91638 16 6.91638C16.414 6.91638 16.75 6.58038 16.75 6.16638V5.41638H18C19.577 5.41638 20.25 6.08938 20.25 7.66638V8.41638H3.75V7.66638C3.75 6.08938 4.423 5.41638 6 5.41638ZM18 20.4164H6C4.423 20.4164 3.75 19.7434 3.75 18.1664V9.91638H20.25V18.1664C20.25 19.7434 19.577 20.4164 18 20.4164ZM15.25 15.1664C15.25 15.5804 14.914 15.9164 14.5 15.9164H9.5C9.086 15.9164 8.75 15.5804 8.75 15.1664C8.75 14.7524 9.086 14.4164 9.5 14.4164H14.5C14.914 14.4164 15.25 14.7524 15.25 15.1664Z" fill="#D8E9FE"/>
</svg>
