<svg width="24" height="24" viewBox="0 0 24 24" fill="none" xmlns="http://www.w3.org/2000/svg">
<path d="M18.5 2.25H7C4.582 2.25 3.25 3.582 3.25 6V18C3.25 20.243 4.757 21.75 7 21.75H18.5C19.74 21.75 20.75 20.741 20.75 19.5V13.5V11V4.5C20.75 3.259 19.74 2.25 18.5 2.25ZM19.25 4.5V11V13.5C19.25 13.914 18.913 14.25 18.5 14.25H9.75V3.75H18.5C18.913 3.75 19.25 4.086 19.25 4.5ZM7 3.75H8.25V14.25H7C6.119 14.25 5.357 14.489 4.75 14.908V6C4.75 4.423 5.423 3.75 7 3.75ZM18.5 20.25H7C5.591 20.25 4.75 19.409 4.75 18C4.75 16.591 5.591 15.75 7 15.75H18.5C18.764 15.75 19.014 15.6961 19.25 15.6121V19.5C19.25 19.914 18.913 20.25 18.5 20.25Z" fill="#D8E9FE"/>
</svg>
