<svg width="25" height="24" viewBox="0 0 25 24" fill="none" xmlns="http://www.w3.org/2000/svg">
<path d="M12.25 20.2853V11.5523C12.514 11.4993 12.774 11.4203 13.024 11.3113L19.679 8.35434C19.714 8.51234 19.75 8.67037 19.75 8.83637V11.1653C19.75 11.5793 20.086 11.9153 20.5 11.9153C20.914 11.9153 21.25 11.5793 21.25 11.1653V8.83637C21.25 8.19937 21.08 7.59235 20.788 7.05435C20.786 7.05035 20.787 7.04636 20.785 7.04236C20.781 7.03236 20.772 7.02636 20.767 7.01636C20.379 6.32136 19.781 5.74736 19.025 5.41236L13.028 2.74436C12.056 2.30936 10.944 2.30835 9.97595 2.74335L3.97595 5.41236C3.21995 5.74836 2.62103 6.32237 2.23303 7.01737C2.22803 7.02737 2.21897 7.03337 2.21497 7.04337C2.21297 7.04737 2.21404 7.05136 2.21204 7.05536C1.92004 7.59336 1.75 8.20034 1.75 8.83734V15.4944C1.75 16.9734 2.62395 18.3174 3.97595 18.9184L9.97302 21.5854C10.462 21.8054 10.9831 21.9164 11.5031 21.9164C11.9261 21.9164 12.349 21.8434 12.755 21.6964C13.145 21.5554 13.346 21.1254 13.205 20.7364C13.065 20.3484 12.636 20.1483 12.25 20.2853ZM10.588 4.11334C11.168 3.85234 11.833 3.85335 12.415 4.11435L18.415 6.78336C18.583 6.85836 18.7299 6.96236 18.8719 7.07236L16.144 8.28437L8.88904 4.86936L10.588 4.11334ZM7.078 5.67435L14.332 9.08936L12.42 9.93936C11.835 10.1944 11.164 10.1933 10.585 9.94135L4.12805 7.07236C4.26905 6.96236 4.41696 6.85836 4.58496 6.78336L7.078 5.67435ZM4.58496 17.5474C3.77396 17.1874 3.25 16.3803 3.25 15.4933V8.83637C3.25 8.67037 3.28604 8.51234 3.32104 8.35434L9.98096 11.3134C10.23 11.4214 10.488 11.5003 10.751 11.5523V20.2723C10.696 20.2523 10.6401 20.2403 10.5861 20.2163L4.58496 17.5474ZM18.5 12.4153C15.881 12.4153 13.75 14.5463 13.75 17.1653C13.75 19.7843 15.881 21.9153 18.5 21.9153C21.119 21.9153 23.25 19.7843 23.25 17.1653C23.25 14.5463 21.119 12.4153 18.5 12.4153ZM18.5 20.4153C16.708 20.4153 15.25 18.9573 15.25 17.1653C15.25 15.3733 16.708 13.9153 18.5 13.9153C20.292 13.9153 21.75 15.3733 21.75 17.1653C21.75 18.9573 20.292 20.4153 18.5 20.4153ZM20.28 15.8014C20.573 16.0944 20.573 16.5694 20.28 16.8624L18.613 18.5294C18.472 18.6694 18.282 18.7484 18.083 18.7484C17.884 18.7484 17.693 18.6694 17.553 18.5284L16.72 17.6953C16.427 17.4023 16.427 16.9273 16.72 16.6343C17.013 16.3423 17.488 16.3413 17.781 16.6343L18.084 16.9373L19.2209 15.8014C19.5129 15.5094 19.987 15.5084 20.28 15.8014Z" fill="#D8E9FE"/>
</svg>
