<svg width="20" height="20" viewBox="0 0 20 20" fill="none" xmlns="http://www.w3.org/2000/svg">
<path d="M16.2506 1.875H6.74721C4.66721 1.875 4.15806 2.88585 3.78222 4.01169L2.11637 9.01169C1.72637 10.1817 1.8114 11.2409 2.3539 11.9934C2.72557 12.51 3.50138 13.125 5.08054 13.125H7.71055V15.1975C7.71055 16.2442 8.23061 17.2159 9.10144 17.7975C9.42644 18.0142 9.80058 18.1258 10.1789 18.1258C10.3797 18.1258 10.5814 18.0941 10.7789 18.0308C11.3489 17.8475 11.7956 17.4216 12.0131 16.8375L13.7864 11.4583H16.2498C17.2831 11.4583 18.1248 10.6175 18.1248 9.58333V3.75C18.1256 2.71583 17.2839 1.875 16.2506 1.875ZM12.7414 10.6375L10.8355 16.4217C10.7597 16.6225 10.6006 16.775 10.3964 16.8408C10.1914 16.9067 9.97311 16.8758 9.79561 16.7575C9.27311 16.4092 8.96146 15.8258 8.96146 15.1975V12.5C8.96146 12.155 8.68146 11.875 8.33646 11.875H5.08146C4.50146 11.875 3.7331 11.7692 3.3681 11.2625C3.07143 10.85 3.04643 10.1742 3.3031 9.40669L4.96895 4.40669C5.26479 3.51752 5.45054 3.12419 6.74721 3.12419H13.3339V10.2075C13.0639 10.2092 12.8255 10.3817 12.7414 10.6375ZM16.8756 9.58333C16.8756 9.92833 16.5948 10.2083 16.2506 10.2083H14.5839V3.125H16.2506C16.5948 3.125 16.8756 3.405 16.8756 3.75V9.58333Z" fill="#D8E9FE"/>
</svg>
