<svg width="25" height="24" viewBox="0 0 25 24" fill="none" xmlns="http://www.w3.org/2000/svg">
<path d="M17.25 7.27002V4C17.25 3.035 16.465 2.25 15.5 2.25H9.5C8.535 2.25 7.75 3.035 7.75 4V7.27002C6.496 7.36702 5.75 8.18 5.75 9.5V18C5.75 20.418 7.082 21.75 9.5 21.75H15.5C17.918 21.75 19.25 20.418 19.25 18V9.5C19.25 8.179 18.504 7.36702 17.25 7.27002ZM9.5 3.75H15.5C15.638 3.75 15.75 3.862 15.75 4V7.25H9.25V4C9.25 3.862 9.362 3.75 9.5 3.75ZM17.75 18C17.75 19.577 17.077 20.25 15.5 20.25H9.5C7.923 20.25 7.25 19.577 7.25 18V9.5C7.25 8.911 7.411 8.75 8 8.75H17C17.589 8.75 17.75 8.911 17.75 9.5V18ZM14.75 17C14.75 17.414 14.414 17.75 14 17.75H11C10.586 17.75 10.25 17.414 10.25 17C10.25 16.586 10.586 16.25 11 16.25H14C14.414 16.25 14.75 16.586 14.75 17ZM10.25 5.5C10.25 5.086 10.586 4.75 11 4.75C11.414 4.75 11.75 5.086 11.75 5.5C11.75 5.914 11.414 6.25 11 6.25C10.586 6.25 10.25 5.914 10.25 5.5ZM13.25 5.5C13.25 5.086 13.586 4.75 14 4.75C14.414 4.75 14.75 5.086 14.75 5.5C14.75 5.914 14.414 6.25 14 6.25C13.586 6.25 13.25 5.914 13.25 5.5Z"/>
</svg>
