<svg width="20" height="20" viewBox="0 0 20 20" fill="none" xmlns="http://www.w3.org/2000/svg">
<path d="M5 2.70837C3.27667 2.70837 1.875 4.11004 1.875 5.83337C1.875 7.55671 3.27667 8.95837 5 8.95837C6.72333 8.95837 8.125 7.55671 8.125 5.83337C8.125 4.11004 6.72333 2.70837 5 2.70837ZM5 7.70837C3.96583 7.70837 3.125 6.86754 3.125 5.83337C3.125 4.79921 3.96583 3.95837 5 3.95837C6.03417 3.95837 6.875 4.79921 6.875 5.83337C6.875 6.86754 6.03417 7.70837 5 7.70837ZM15 11.0417C13.2767 11.0417 11.875 12.4434 11.875 14.1667C11.875 15.89 13.2767 17.2917 15 17.2917C16.7233 17.2917 18.125 15.89 18.125 14.1667C18.125 12.4434 16.7233 11.0417 15 11.0417ZM15 16.0417C13.9658 16.0417 13.125 15.2009 13.125 14.1667C13.125 13.1325 13.9658 12.2917 15 12.2917C16.0342 12.2917 16.875 13.1325 16.875 14.1667C16.875 15.2009 16.0342 16.0417 15 16.0417ZM12.5 6.45837H17.5C17.845 6.45837 18.125 6.17837 18.125 5.83337C18.125 5.48837 17.845 5.20837 17.5 5.20837H12.5C12.155 5.20837 11.875 5.48837 11.875 5.83337C11.875 6.17837 12.155 6.45837 12.5 6.45837ZM7.5 13.5417H2.5C2.155 13.5417 1.875 13.8217 1.875 14.1667C1.875 14.5117 2.155 14.7917 2.5 14.7917H7.5C7.845 14.7917 8.125 14.5117 8.125 14.1667C8.125 13.8217 7.845 13.5417 7.5 13.5417Z" fill="white"/>
</svg>
