<svg width="36" height="36" viewBox="0 0 36 36" fill="none" xmlns="http://www.w3.org/2000/svg">
<path d="M28.5 25.5C28.5 26.121 27.996 26.625 27.375 26.625H23.625C23.004 26.625 22.5 26.121 22.5 25.5C22.5 24.879 23.004 24.375 23.625 24.375H27.375C27.996 24.375 28.5 24.879 28.5 25.5ZM32.625 25.5C32.625 29.4285 29.4285 32.625 25.5 32.625C23.8425 32.625 22.335 32.0325 21.1245 31.08C19.5915 32.013 18.5144 32.502 18.4634 32.526C18.3149 32.592 18.159 32.625 18 32.625C17.841 32.625 17.6819 32.592 17.5334 32.5245C17.0429 32.301 5.49298 26.955 3.64798 17.418C2.93248 13.722 3.65103 10.1205 5.56803 7.785C7.12053 5.895 9.35099 4.8885 12.0225 4.875C12.0315 4.875 12.0421 4.875 12.0511 4.875C15.1081 4.875 16.968 6.61347 18 8.09097C19.0305 6.61347 20.892 4.875 23.946 4.875C23.955 4.875 23.964 4.875 23.9745 4.875C26.6505 4.8885 28.884 5.89354 30.435 7.78354C32.3505 10.1175 33.0675 13.719 32.3505 17.4195C32.103 18.6795 31.668 19.9185 31.0755 21.1185C32.031 22.3305 32.625 23.8395 32.625 25.5ZM19.5479 29.3985C18.8114 28.2765 18.375 26.94 18.375 25.5C18.375 21.5715 21.5715 18.375 25.5 18.375C26.907 18.375 28.2104 18.798 29.3159 19.5045C29.6744 18.6765 29.973 17.838 30.1395 16.989C30.7305 13.9425 30.189 11.034 28.6935 9.21149C27.5655 7.83749 25.9739 7.1355 23.9624 7.125C23.9564 7.125 23.9505 7.125 23.9445 7.125C20.3805 7.125 19.1159 10.6935 19.0649 10.845C18.9089 11.2995 18.48 11.6085 18 11.6085C17.997 11.6085 17.9954 11.6085 17.9939 11.6085C17.5124 11.607 17.085 11.2995 16.9305 10.842C16.881 10.695 15.6164 7.12646 12.0494 7.12646C12.0434 7.12646 12.0375 7.12646 12.0315 7.12646C10.026 7.13696 8.43593 7.83901 7.30643 9.21451C5.80943 11.04 5.26805 13.947 5.85605 16.992C7.28405 24.381 15.8939 29.1765 18.0014 30.249C18.3554 30.0705 18.8999 29.778 19.5479 29.3985ZM30.375 25.5C30.375 22.812 28.188 20.625 25.5 20.625C22.812 20.625 20.625 22.812 20.625 25.5C20.625 28.188 22.812 30.375 25.5 30.375C28.188 30.375 30.375 28.188 30.375 25.5Z" fill="white"/>
</svg>
