<svg width="24" height="25" viewBox="0 0 24 25" fill="none" xmlns="http://www.w3.org/2000/svg">
<path d="M21.75 5.16638V8.66638C21.75 9.08038 21.414 9.41638 21 9.41638C20.586 9.41638 20.25 9.08038 20.25 8.66638V5.16638C20.25 4.57738 20.089 4.41638 19.5 4.41638H16C15.586 4.41638 15.25 4.08038 15.25 3.66638C15.25 3.25238 15.586 2.91638 16 2.91638H19.5C20.909 2.91638 21.75 3.75738 21.75 5.16638ZM3 9.41638C3.414 9.41638 3.75 9.08038 3.75 8.66638V5.16638C3.75 4.57738 3.911 4.41638 4.5 4.41638H8C8.414 4.41638 8.75 4.08038 8.75 3.66638C8.75 3.25238 8.414 2.91638 8 2.91638H4.5C3.091 2.91638 2.25 3.75738 2.25 5.16638V8.66638C2.25 9.08038 2.586 9.41638 3 9.41638ZM8 20.9164H4.5C3.911 20.9164 3.75 20.7554 3.75 20.1664V16.6664C3.75 16.2524 3.414 15.9164 3 15.9164C2.586 15.9164 2.25 16.2524 2.25 16.6664V20.1664C2.25 21.5754 3.091 22.4164 4.5 22.4164H8C8.414 22.4164 8.75 22.0804 8.75 21.6664C8.75 21.2524 8.414 20.9164 8 20.9164ZM21 15.9164C20.586 15.9164 20.25 16.2524 20.25 16.6664V20.1664C20.25 20.7554 20.089 20.9164 19.5 20.9164H16C15.586 20.9164 15.25 21.2524 15.25 21.6664C15.25 22.0804 15.586 22.4164 16 22.4164H19.5C20.909 22.4164 21.75 21.5754 21.75 20.1664V16.6664C21.75 16.2524 21.414 15.9164 21 15.9164ZM12.25 10.9164V8.41638C12.25 7.50538 12.839 6.91638 13.75 6.91638H16.25C17.161 6.91638 17.75 7.50538 17.75 8.41638V10.9164C17.75 11.8274 17.161 12.4164 16.25 12.4164H13.75C12.839 12.4164 12.25 11.8274 12.25 10.9164ZM13.75 10.9164H16.2419L16.25 8.42438L13.7581 8.41638L13.75 10.9164ZM11.75 8.41638V10.9164C11.75 11.8274 11.161 12.4164 10.25 12.4164H7.75C6.839 12.4164 6.25 11.8274 6.25 10.9164V8.41638C6.25 7.50538 6.839 6.91638 7.75 6.91638H10.25C11.161 6.91638 11.75 7.50538 11.75 8.41638ZM10.25 8.42438L7.75806 8.41638L7.75 10.9164H10.2419L10.25 8.42438ZM16.25 18.4164H13.75C12.839 18.4164 12.25 17.8274 12.25 16.9164V14.4164C12.25 13.5054 12.839 12.9164 13.75 12.9164H16.25C17.161 12.9164 17.75 13.5054 17.75 14.4164V16.9164C17.75 17.8274 17.161 18.4164 16.25 18.4164ZM16.2419 16.9164L16.25 14.4244L13.7581 14.4164L13.75 16.9164H16.2419ZM11.75 14.4164V16.9164C11.75 17.8274 11.161 18.4164 10.25 18.4164H7.75C6.839 18.4164 6.25 17.8274 6.25 16.9164V14.4164C6.25 13.5054 6.839 12.9164 7.75 12.9164H10.25C11.161 12.9164 11.75 13.5054 11.75 14.4164ZM10.25 14.4244L7.75806 14.4164L7.75 16.9164H10.2419L10.25 14.4244Z" fill="#D8E9FE"/>
</svg>
