<svg width="25" height="24" viewBox="0 0 25 24" fill="none" xmlns="http://www.w3.org/2000/svg">
<path d="M12.5 1.41638C6.572 1.41638 1.75 6.23938 1.75 12.1664C1.75 18.0934 6.572 22.9164 12.5 22.9164C18.428 22.9164 23.25 18.0934 23.25 12.1664C23.25 6.23938 18.428 1.41638 12.5 1.41638ZM21.712 11.4164H17.662C17.531 8.67338 16.687 5.87839 15.227 3.32739C18.77 4.42339 21.403 7.59638 21.712 11.4164ZM13.23 2.95337C14.986 5.56437 16.009 8.52638 16.162 11.4164H8.83801C8.99001 8.52638 10.014 5.56437 11.77 2.95337C12.012 2.93437 12.254 2.91638 12.5 2.91638C12.746 2.91638 12.989 2.93437 13.23 2.95337ZM9.77301 3.32739C8.31301 5.87839 7.46901 8.67338 7.33801 11.4164H3.28799C3.59699 7.59638 6.23001 4.42339 9.77301 3.32739ZM3.28799 12.9164H7.33801C7.46901 15.6594 8.31301 18.4544 9.77301 21.0054C6.23001 19.9094 3.59699 16.7364 3.28799 12.9164ZM11.77 21.3794C10.014 18.7684 8.99101 15.8064 8.83801 12.9164H16.162C16.01 15.8064 14.986 18.7684 13.23 21.3794C12.988 21.3984 12.746 21.4164 12.5 21.4164C12.254 21.4164 12.011 21.3984 11.77 21.3794ZM15.227 21.0054C16.687 18.4544 17.531 15.6594 17.662 12.9164H21.712C21.403 16.7364 18.77 19.9094 15.227 21.0054Z" fill="#D8E9FE"/>
</svg>
