<svg width="20" height="20" viewBox="0 0 20 20" fill="none" xmlns="http://www.w3.org/2000/svg">
<path d="M17.6459 8.00664C17.2742 7.48998 16.4984 6.875 14.9192 6.875H12.2892V4.8025C12.2892 3.75584 11.7692 2.78417 10.8983 2.20251C10.4008 1.87084 9.78922 1.78581 9.22089 1.96915C8.65089 2.15248 8.20415 2.57832 7.98665 3.16249L6.21338 8.54167H3.75C2.71667 8.54167 1.875 9.3825 1.875 10.4167V16.25C1.875 17.2842 2.71667 18.125 3.75 18.125H13.2534C15.3334 18.125 15.8425 17.1141 16.2184 15.9883L17.8842 10.9883C18.2734 9.81831 18.1884 8.75914 17.6459 8.00664ZM3.12419 16.25V10.4167C3.12419 10.0717 3.40502 9.79167 3.74919 9.79167H5.41585V16.875H3.74919C3.40502 16.875 3.12419 16.595 3.12419 16.25ZM16.6967 10.5925L15.0308 15.5925C14.735 16.4817 14.5492 16.875 13.2526 16.875H6.66585V9.79167C6.93585 9.79167 7.17424 9.61832 7.2584 9.36249L9.16423 3.57834C9.24006 3.37751 9.39921 3.22501 9.60337 3.15918C9.80754 3.09251 10.0258 3.12416 10.2042 3.24249C10.7267 3.59083 11.0383 4.17417 11.0383 4.8025V7.5C11.0383 7.845 11.3183 8.125 11.6633 8.125H14.9183C15.4983 8.125 16.2667 8.23082 16.6317 8.73749C16.9283 9.14916 16.9533 9.82583 16.6967 10.5925Z" fill="#D8E9FE"/>
</svg>
