<svg width="24" height="24" viewBox="0 0 24 24" fill="none" xmlns="http://www.w3.org/2000/svg">
<path d="M21.686 13.5811C21.148 18.5231 16.984 22.25 12 22.25C8.603 22.25 5.504 20.479 3.75 17.686V20.5C3.75 20.914 3.414 21.25 3 21.25C2.586 21.25 2.25 20.914 2.25 20.5V15.5C2.25 15.086 2.586 14.75 3 14.75H8C8.414 14.75 8.75 15.086 8.75 15.5C8.75 15.914 8.414 16.25 8 16.25H4.66992C6.05992 18.976 8.877 20.75 12 20.75C16.217 20.75 19.7391 17.5979 20.1951 13.4189C20.2391 13.0059 20.613 12.7109 21.021 12.7539C21.434 12.7989 21.73 13.1691 21.686 13.5811ZM21 3.75C20.586 3.75 20.25 4.086 20.25 4.5V7.31396C18.496 4.52096 15.397 2.75 12 2.75C7.017 2.75 2.85296 6.47695 2.31396 11.4189C2.26896 11.8309 2.56603 12.2011 2.97803 12.2461C3.00503 12.2491 3.03306 12.25 3.06006 12.25C3.43806 12.25 3.76296 11.9651 3.80396 11.5811C4.25996 7.40205 7.78302 4.25 11.999 4.25C15.123 4.25 17.9391 6.024 19.3291 8.75H16C15.586 8.75 15.25 9.086 15.25 9.5C15.25 9.914 15.586 10.25 16 10.25H21C21.414 10.25 21.75 9.914 21.75 9.5V4.5C21.75 4.086 21.414 3.75 21 3.75Z" fill="#B8CDE1"/>
</svg>
