<svg width="20" height="20" viewBox="0 0 20 20" fill="none" xmlns="http://www.w3.org/2000/svg">
<path d="M9.7915 15.8333C9.7915 16.1783 9.5115 16.4583 9.1665 16.4583H4.1665C2.1515 16.4583 1.0415 15.3483 1.0415 13.3333V5.83331C1.0415 3.81831 2.1515 2.70831 4.1665 2.70831H14.1665C16.1815 2.70831 17.2915 3.81831 17.2915 5.83331V8.33331C17.2915 8.67831 17.0115 8.95831 16.6665 8.95831C16.3215 8.95831 16.0415 8.67831 16.0415 8.33331V5.83331C16.0415 4.51915 15.4807 3.95831 14.1665 3.95831H4.1665C2.85234 3.95831 2.2915 4.51915 2.2915 5.83331V13.3333C2.2915 14.6475 2.85234 15.2083 4.1665 15.2083H9.1665C9.5115 15.2083 9.7915 15.4883 9.7915 15.8333ZM14.2548 6.29915C14.0523 6.02082 13.6624 5.95748 13.3816 6.16164L9.28817 9.13832C9.21483 9.19082 9.11736 9.19082 9.04403 9.13832L4.9506 6.16164C4.66894 5.95748 4.27989 6.02165 4.07739 6.29915C3.87406 6.57832 3.93576 6.96998 4.21493 7.17248L8.30815 10.1491C8.56481 10.3358 8.86569 10.4291 9.16569 10.4291C9.46569 10.4291 9.7674 10.3358 10.0232 10.1491L14.1165 7.17248C14.3965 6.96914 14.459 6.57832 14.2548 6.29915ZM18.9582 12.4016C18.9573 12.7667 18.8149 13.11 18.5566 13.3675L13.9598 17.9425C13.8423 18.0592 13.6839 18.125 13.5189 18.125H11.6665C11.3215 18.125 11.0415 17.845 11.0415 17.5V15.6483C11.0415 15.4833 11.1065 15.3241 11.224 15.2075L15.7998 10.61C16.0573 10.3508 16.4006 10.2083 16.7656 10.2083C16.7656 10.2083 16.7666 10.2083 16.7674 10.2083C17.1324 10.2083 17.4749 10.35 17.7324 10.6083L18.5574 11.4341C18.8165 11.6925 18.9582 12.0358 18.9582 12.4016ZM16.6848 11.4925L16.1573 12.0225L17.144 13.0091L17.674 12.4816C17.7023 12.4541 17.7082 12.4225 17.7082 12.4C17.7082 12.3775 17.7023 12.3458 17.674 12.3175L16.849 11.4916C16.8215 11.4633 16.7899 11.4575 16.7674 11.4575C16.7449 11.4575 16.714 11.4641 16.6848 11.4925ZM16.2582 13.8908L15.2757 12.9083L12.2915 15.9066V16.8758H13.2607L16.2582 13.8908Z" fill="#A3E9FF"/>
</svg>
