<svg width="24" height="25" viewBox="0 0 24 25" fill="none" xmlns="http://www.w3.org/2000/svg">
<path d="M17 4.75H16.73C16.633 3.496 15.821 2.75 14.5 2.75H9.5C8.179 2.75 7.36702 3.496 7.27002 4.75H7C4.582 4.75 3.25 6.082 3.25 8.5V18.5C3.25 20.918 4.582 22.25 7 22.25H17C19.418 22.25 20.75 20.918 20.75 18.5V8.5C20.75 6.082 19.418 4.75 17 4.75ZM8.75 5C8.75 4.411 8.911 4.25 9.5 4.25H14.5C15.089 4.25 15.25 4.411 15.25 5V6C15.25 6.589 15.089 6.75 14.5 6.75H9.5C8.911 6.75 8.75 6.589 8.75 6V5ZM19.25 18.5C19.25 20.077 18.577 20.75 17 20.75H7C5.423 20.75 4.75 20.077 4.75 18.5V8.5C4.75 6.923 5.423 6.25 7 6.25H7.27002C7.36702 7.504 8.179 8.25 9.5 8.25H14.5C15.821 8.25 16.633 7.504 16.73 6.25H17C18.577 6.25 19.25 6.923 19.25 8.5V18.5ZM16.27 11.22L15.28 10.23C14.97 9.91998 14.5591 9.75 14.1221 9.75C14.1211 9.75 14.1201 9.75 14.1201 9.75C13.6821 9.75 13.2689 9.92197 12.9609 10.233L7.46997 15.749C7.32897 15.889 7.25098 16.08 7.25098 16.278V18.5C7.25098 18.914 7.58698 19.25 8.00098 19.25H10.2241C10.4221 19.25 10.6129 19.171 10.7529 19.031L16.269 13.54C16.58 13.231 16.75 12.819 16.751 12.381C16.751 11.943 16.58 11.531 16.27 11.22ZM14.1211 11.25C14.1471 11.25 14.185 11.257 14.219 11.291L15.209 12.281C15.243 12.315 15.25 12.354 15.25 12.38C15.25 12.406 15.243 12.444 15.209 12.478L14.573 13.111L13.3889 11.927L14.022 11.291C14.057 11.257 14.0951 11.25 14.1211 11.25ZM9.91309 17.75H8.75V16.587L12.3311 12.99L13.51 14.169L9.91309 17.75Z" fill="#D8E9FE"/>
</svg>
