<svg width="24" height="24" viewBox="0 0 24 24" fill="none" xmlns="http://www.w3.org/2000/svg">
<path d="M18.375 6.41638H9.625C7.448 6.41638 6.25 7.61438 6.25 9.79138V18.5414C6.25 20.7184 7.448 21.9164 9.625 21.9164H18.375C20.552 21.9164 21.75 20.7184 21.75 18.5414V9.79138C21.75 7.61438 20.552 6.41638 18.375 6.41638ZM20.25 18.5414C20.25 19.8734 19.707 20.4164 18.375 20.4164H9.625C8.293 20.4164 7.75 19.8734 7.75 18.5414V9.79138C7.75 8.45938 8.293 7.91638 9.625 7.91638H18.375C19.707 7.91638 20.25 8.45938 20.25 9.79138V18.5414ZM3.75 5.78638V14.5464C3.75 15.7444 4.23309 16.0394 4.39209 16.1374C4.74609 16.3534 4.85589 16.8154 4.63989 17.1684C4.49789 17.3994 4.25202 17.5264 3.99902 17.5264C3.86602 17.5264 3.72991 17.4904 3.60791 17.4164C2.70691 16.8644 2.25 15.8994 2.25 14.5464V5.78638C2.25 3.64438 3.47912 2.41638 5.62012 2.41638H14.3799C16.0649 2.41638 16.87 3.15535 17.25 3.77435C17.466 4.12735 17.355 4.58936 17.002 4.80536C16.647 5.02236 16.1869 4.91037 15.9709 4.55737C15.8739 4.39837 15.5779 3.91541 14.3799 3.91541H5.62012C4.29212 3.91641 3.75 4.45838 3.75 5.78638ZM17.03 11.9694C17.323 12.2624 17.323 12.7374 17.03 13.0304L13.697 16.3634C13.556 16.5044 13.366 16.5834 13.167 16.5834C12.968 16.5834 12.777 16.5044 12.637 16.3634L10.97 14.6964C10.677 14.4034 10.677 13.9284 10.97 13.6354C11.263 13.3424 11.738 13.3424 12.031 13.6354L13.168 14.7714L15.9709 11.9684C16.2629 11.6764 16.737 11.6764 17.03 11.9694Z" fill="#D8E9FE"/>
</svg>
