<svg width="24" height="24" viewBox="0 0 24 24" fill="none" xmlns="http://www.w3.org/2000/svg">
<path d="M21.0359 4.34837C21.0349 4.34837 21.0349 4.34839 21.0339 4.34739C19.3319 3.54039 17.445 3.25738 15.425 3.50438C13.971 3.68338 12.741 4.51433 12 5.67833C11.258 4.51533 10.029 3.68338 8.57495 3.50438C6.55195 3.25738 4.66706 3.54039 2.96606 4.34739C2.96606 4.34739 2.96609 4.34739 2.96509 4.34739C2.53109 4.55339 2.25 5.00031 2.25 5.48631V18.4913C2.25 18.8853 2.42992 19.2464 2.74292 19.4834C3.05492 19.7204 3.4711 19.7953 3.8501 19.6893C6.7581 18.8633 9.21701 19.2134 11.583 20.7904C11.593 20.7974 11.605 20.7994 11.615 20.8054C11.626 20.8114 11.634 20.8214 11.646 20.8274C11.657 20.8334 11.6699 20.8304 11.6809 20.8364C11.7819 20.8844 11.889 20.9164 11.999 20.9164C12.109 20.9164 12.2159 20.8844 12.3169 20.8364C12.3279 20.8314 12.3411 20.8334 12.3521 20.8274C12.3631 20.8214 12.3721 20.8124 12.3821 20.8054C12.3921 20.7994 12.4041 20.7974 12.4141 20.7904C14.7801 19.2124 17.238 18.8623 20.147 19.6883C20.527 19.7963 20.9409 19.7204 21.2539 19.4834C21.5669 19.2474 21.7471 18.8853 21.7471 18.4913V5.48631C21.7501 5.00231 21.4699 4.55537 21.0359 4.34837ZM6.73291 17.7594C5.77191 17.7594 4.779 17.8944 3.75 18.1614V5.63633C5.17 4.99333 6.69309 4.78241 8.39209 4.99241C10.0221 5.19241 11.25 6.58235 11.25 8.22435V18.8553C9.815 18.1243 8.31691 17.7594 6.73291 17.7594ZM20.25 18.1623C17.522 17.4533 15.056 17.6804 12.75 18.8574V8.22642C12.75 6.58342 13.9789 5.19437 15.6079 4.99437C16.0299 4.94237 16.441 4.91636 16.842 4.91636C18.057 4.91636 19.182 5.15541 20.249 5.63841V18.1623H20.25ZM15 8.41636H18C18.414 8.41636 18.75 8.75236 18.75 9.16636C18.75 9.58036 18.414 9.91636 18 9.91636H15C14.586 9.91636 14.25 9.58036 14.25 9.16636C14.25 8.75236 14.586 8.41636 15 8.41636ZM17.75 12.1664C17.75 12.5804 17.414 12.9164 17 12.9164H15C14.586 12.9164 14.25 12.5804 14.25 12.1664C14.25 11.7524 14.586 11.4164 15 11.4164H17C17.414 11.4164 17.75 11.7524 17.75 12.1664Z" />
</svg>
