<svg width="25" height="24" viewBox="0 0 25 24" fill="none" xmlns="http://www.w3.org/2000/svg">
<path d="M10.25 11.1664V7.16638C10.25 6.75238 10.586 6.41638 11 6.41638C11.414 6.41638 11.75 6.75238 11.75 7.16638V8.41638H13.25V7.16638C13.25 6.75238 13.586 6.41638 14 6.41638C14.414 6.41638 14.75 6.75238 14.75 7.16638V11.1664C14.75 11.5804 14.414 11.9164 14 11.9164C13.586 11.9164 13.25 11.5804 13.25 11.1664V9.91638H11.75V11.1664C11.75 11.5804 11.414 11.9164 11 11.9164C10.586 11.9164 10.25 11.5804 10.25 11.1664ZM23.25 21.1664C23.25 21.5804 22.914 21.9164 22.5 21.9164H2.5C2.086 21.9164 1.75 21.5804 1.75 21.1664C1.75 20.7524 2.086 20.4164 2.5 20.4164H2.75V11.1664C2.75 9.41838 3.752 8.41638 5.5 8.41638H5.75V6.16638C5.75 3.74838 7.082 2.41638 9.5 2.41638H15.5C17.918 2.41638 19.25 3.74838 19.25 6.16638V8.41638H19.5C21.248 8.41638 22.25 9.41838 22.25 11.1664V20.4164H22.5C22.914 20.4164 23.25 20.7524 23.25 21.1664ZM7.25 20.4164H9.75V17.1664C9.75 15.6494 10.983 14.4164 12.5 14.4164C14.017 14.4164 15.25 15.6494 15.25 17.1664V20.4164H17.75V6.16638C17.75 4.58938 17.077 3.91638 15.5 3.91638H9.5C7.923 3.91638 7.25 4.58938 7.25 6.16638V20.4164ZM13.75 17.1664C13.75 16.4774 13.189 15.9164 12.5 15.9164C11.811 15.9164 11.25 16.4774 11.25 17.1664V20.4164H13.75V17.1664ZM4.25 20.4164H5.75V9.91638H5.5C4.589 9.91638 4.25 10.2554 4.25 11.1664V20.4164ZM20.75 20.4164V11.1664C20.75 10.2554 20.411 9.91638 19.5 9.91638H19.25V20.4164H20.75Z" fill="#D8E9FE"/>
</svg>
