<svg width="21" height="21" viewBox="0 0 21 21" fill="none" xmlns="http://www.w3.org/2000/svg">
<path d="M18.25 20.25H14.75C14.061 20.25 13.5 19.689 13.5 19V17.5C13.5 16.811 12.939 16.25 12.25 16.25C11.561 16.25 11 16.811 11 17.5V19C11 19.689 10.439 20.25 9.75 20.25H7.25C5.733 20.25 4.5 19.016 4.5 17.5V15.25H3.25C1.733 15.25 0.5 14.016 0.5 12.5C0.5 10.984 1.733 9.75 3.25 9.75H4.5V7.5C4.5 5.984 5.733 4.75 7.25 4.75H9.5V3.5C9.5 1.984 10.733 0.75 12.25 0.75C13.767 0.75 15 1.984 15 3.5V4.75H18.25C19.767 4.75 21 5.984 21 7.5V10C21 10.689 20.439 11.25 19.75 11.25H18.25C17.561 11.25 17 11.811 17 12.5C17 13.189 17.561 13.75 18.25 13.75H19.75C20.439 13.75 21 14.311 21 15V17.5C21 19.016 19.767 20.25 18.25 20.25ZM15 18.75H18.25C18.939 18.75 19.5 18.189 19.5 17.5V15.25H18.25C16.733 15.25 15.5 14.016 15.5 12.5C15.5 10.984 16.733 9.75 18.25 9.75H19.5V7.5C19.5 6.811 18.939 6.25 18.25 6.25H14.75C14.061 6.25 13.5 5.689 13.5 5V3.5C13.5 2.811 12.939 2.25 12.25 2.25C11.561 2.25 11 2.811 11 3.5V5C11 5.689 10.439 6.25 9.75 6.25H7.25C6.561 6.25 6 6.811 6 7.5V10C6 10.689 5.439 11.25 4.75 11.25H3.25C2.561 11.25 2 11.811 2 12.5C2 13.189 2.561 13.75 3.25 13.75H4.75C5.439 13.75 6 14.311 6 15V17.5C6 18.189 6.561 18.75 7.25 18.75H9.5V17.5C9.5 15.984 10.733 14.75 12.25 14.75C13.767 14.75 15 15.984 15 17.5V18.75Z" fill="#D8E9FE"/>
</svg>
