<svg width="32" height="32" viewBox="0 0 32 32" fill="none" xmlns="http://www.w3.org/2000/svg">
<path d="M7.79934 20.9733C6.93268 20.9733 6.07935 21.3066 5.42601 21.96C4.34601 23.04 3.31933 26.6666 3.03933 27.7466C2.946 28.0933 3.03934 28.4533 3.29267 28.7066C3.47934 28.9066 3.74602 29.0133 4.01268 29.0133C4.09268 29.0133 4.17267 29.0133 4.25267 28.9866C5.29267 28.7333 8.77266 27.8133 9.86599 26.7333C11.226 25.3733 11.3193 23.24 10.066 21.9733C9.45265 21.36 8.65266 21.0133 7.826 20.9866L7.79934 20.9733ZM8.43932 25.2933C8.10598 25.6266 6.83932 26.12 5.47932 26.5466C5.95932 25.08 6.50602 23.72 6.85269 23.36C7.11936 23.0933 7.42601 22.9466 7.75935 22.96C8.07935 22.96 8.38602 23.1066 8.63935 23.36C9.11935 23.84 9.02598 24.7066 8.43932 25.28V25.2933ZM20.346 7.70663C18.146 7.70663 16.346 9.49329 16.346 11.6933C16.346 13.8933 18.146 15.68 20.346 15.68C22.546 15.68 24.346 13.8933 24.346 11.6933C24.346 9.49329 22.546 7.70663 20.346 7.70663ZM20.346 13.6933C19.2393 13.6933 18.346 12.8 18.346 11.7066C18.346 10.6133 19.2393 9.71997 20.346 9.71997C21.4527 9.71997 22.346 10.6133 22.346 11.7066C22.346 12.8 21.4527 13.6933 20.346 13.6933ZM28.586 4.0933C28.4927 3.7333 28.2127 3.4533 27.8527 3.3733C27.5327 3.2933 19.826 1.4933 14.7993 6.51996C14.1193 7.19996 13.546 7.86663 13.0127 8.50663L10.226 9.10663C7.58602 9.5333 5.34599 11.3333 4.35932 13.8L3.07933 16.9866C2.946 17.3333 2.99933 17.72 3.23933 18C3.42599 18.2266 3.706 18.3466 3.99934 18.3466C4.066 18.3466 4.14601 18.3466 4.21267 18.32L8.706 17.32C8.63933 17.5466 8.57266 17.7733 8.49266 18.0133C8.31933 18.6133 8.46599 19.2533 8.90599 19.68L12.266 23.04C12.586 23.36 13.0127 23.5333 13.4527 23.5333C13.5993 23.5333 13.746 23.52 13.8793 23.48C14.1593 23.4 14.426 23.3333 14.6927 23.2533L13.6793 27.7733C13.5993 28.1333 13.7193 28.5066 14.0127 28.7466C14.1993 28.9066 14.426 28.9866 14.666 28.9866C14.786 28.9866 14.9193 28.96 15.0393 28.92L18.226 27.64C20.706 26.6533 22.5194 24.4133 22.9327 21.84L23.5194 19.1466C24.186 18.6 24.866 18.0133 25.586 17.2933C30.6127 12.2533 28.666 4.4133 28.586 4.07997V4.0933ZM5.65266 15.9733L6.22602 14.5466C6.94602 12.72 8.61269 11.4 10.5994 11.08L11.3327 10.92C10.9993 11.48 10.7193 12.04 10.4527 12.6266C10.4393 12.6533 10.426 12.68 10.4127 12.7066C10.0527 13.48 9.73265 14.2933 9.43932 15.1333L5.65266 15.9733ZM13.5594 21.5066L10.4793 18.4266C10.8793 17.08 11.266 15.9066 11.6927 14.8133L17.2793 20.3866C16.186 20.7866 14.986 21.1333 13.5727 21.52L13.5594 21.5066ZM20.9727 21.48C20.666 23.4133 19.3327 25.0666 17.4927 25.7866L16.066 26.36L16.906 22.6133C17.7993 22.3333 18.626 22.0133 19.4127 21.68C19.426 21.68 19.4527 21.6666 19.466 21.6533C20.0393 21.4 20.586 21.12 21.1193 20.8133L20.9727 21.48ZM19.266 19.5466L12.546 12.84C13.386 11.2 14.4793 9.66663 16.2127 7.9333C19.6927 4.4533 24.986 4.91997 26.7727 5.19997C27.0927 6.99997 27.666 12.4 24.1727 15.8933C22.4393 17.6266 20.946 18.72 19.266 19.5466Z" fill="url(#paint0_linear_1270_9004)"/>
<defs>
<linearGradient id="paint0_linear_1270_9004" x1="3.00391" y1="19.9373" x2="33.9902" y2="19.6348" gradientUnits="userSpaceOnUse">
<stop offset="0.0343384" stop-color="#51C5EA"/>
<stop offset="1" stop-color="#F18FF3"/>
</linearGradient>
</defs>
</svg>
