<svg width="20" height="20" viewBox="0 0 20 20" fill="none" xmlns="http://www.w3.org/2000/svg">
<path d="M16.6663 15.625H3.33301C2.98801 15.625 2.70801 15.345 2.70801 15C2.70801 14.655 2.98801 14.375 3.33301 14.375H16.6663C17.0113 14.375 17.2913 14.655 17.2913 15C17.2913 15.345 17.0113 15.625 16.6663 15.625ZM14.7913 10C14.7913 9.655 14.5113 9.375 14.1663 9.375H5.83301C5.48801 9.375 5.20801 9.655 5.20801 10C5.20801 10.345 5.48801 10.625 5.83301 10.625H14.1663C14.5113 10.625 14.7913 10.345 14.7913 10ZM12.2913 5C12.2913 4.655 12.0113 4.375 11.6663 4.375H8.33301C7.98801 4.375 7.70801 4.655 7.70801 5C7.70801 5.345 7.98801 5.625 8.33301 5.625H11.6663C12.0113 5.625 12.2913 5.345 12.2913 5Z" fill="white"/>
</svg>
