<svg width="24" height="24" viewBox="0 0 24 24" fill="none" xmlns="http://www.w3.org/2000/svg">
<path d="M21.75 5.66638V4.66638C21.75 3.25738 20.909 2.41638 19.5 2.41638H18.5C17.179 2.41638 16.367 3.16238 16.269 4.41638H7.72998C7.63298 3.16238 6.82002 2.41638 5.49902 2.41638H4.49902C3.09002 2.41638 2.24902 3.25738 2.24902 4.66638V5.66638C2.24902 6.98738 2.99502 7.79939 4.24902 7.89639V16.4354C2.99502 16.5324 2.24902 17.3444 2.24902 18.6654V19.6654C2.24902 21.0744 3.09002 21.9154 4.49902 21.9154H5.49902C6.82002 21.9154 7.63198 21.1694 7.72998 19.9154H16.269C16.366 21.1694 17.179 21.9154 18.5 21.9154H19.5C20.909 21.9154 21.75 21.0744 21.75 19.6654V18.6654C21.75 17.3444 21.004 16.5324 19.75 16.4354V7.89639C21.004 7.79939 21.75 6.98738 21.75 5.66638ZM17.75 4.66638C17.75 4.07738 17.911 3.91638 18.5 3.91638H19.5C20.089 3.91638 20.25 4.07738 20.25 4.66638V5.66638C20.25 6.25538 20.089 6.41638 19.5 6.41638H18.5C17.911 6.41638 17.75 6.25538 17.75 5.66638V4.66638ZM16.269 18.4164H7.72998C7.63898 17.2464 6.92002 16.5264 5.74902 16.4364V7.89737C6.91902 7.80637 7.63898 7.08739 7.72998 5.91739H16.269C16.36 7.08739 17.079 7.80737 18.25 7.89737V16.4364C17.08 16.5264 16.36 17.2464 16.269 18.4164ZM3.75 5.66638V4.66638C3.75 4.07738 3.911 3.91638 4.5 3.91638H5.5C6.089 3.91638 6.25 4.07738 6.25 4.66638V5.66638C6.25 6.25538 6.089 6.41638 5.5 6.41638H4.5C3.911 6.41638 3.75 6.25538 3.75 5.66638ZM6.25 19.6664C6.25 20.2554 6.089 20.4164 5.5 20.4164H4.5C3.911 20.4164 3.75 20.2554 3.75 19.6664V18.6664C3.75 18.0774 3.911 17.9164 4.5 17.9164H5.5C6.089 17.9164 6.25 18.0774 6.25 18.6664V19.6664ZM20.25 18.6664V19.6664C20.25 20.2554 20.089 20.4164 19.5 20.4164H18.5C17.911 20.4164 17.75 20.2554 17.75 19.6664V18.6664C17.75 18.0774 17.911 17.9164 18.5 17.9164H19.5C20.089 17.9164 20.25 18.0774 20.25 18.6664Z" fill="#D8E9FE"/>
</svg>
