<svg width="20" height="19" viewBox="0 0 20 19" fill="none" xmlns="http://www.w3.org/2000/svg">
<path d="M19.448 10.015C19.448 10.01 19.4509 10.006 19.4509 10.001C19.4509 9.98698 19.444 9.97598 19.443 9.96198C19.432 9.89398 19.417 9.826 19.402 9.758C19.395 9.738 19.393 9.717 19.385 9.698C19.344 9.524 19.302 9.34995 19.236 9.17896L18.198 6.61499C17.739 5.45199 17.264 4.25 14.72 4.25H12.5V2.5C12.5 1.259 11.49 0.25 10.25 0.25H2.25C1.01 0.25 0 1.259 0 2.5V13.5C0 14.665 0.892954 15.614 2.02795 15.728C2.01895 15.819 2 15.907 2 16C2 17.516 3.233 18.75 4.75 18.75C6.267 18.75 7.5 17.516 7.5 16C7.5 15.914 7.48198 15.833 7.47498 15.75H12.026C12.018 15.833 12.001 15.914 12.001 16C12.001 17.516 13.234 18.75 14.751 18.75C16.268 18.75 17.501 17.516 17.501 16C17.501 15.907 17.483 15.818 17.473 15.728C18.608 15.614 19.501 14.665 19.501 13.5V10.58C19.501 10.391 19.476 10.203 19.448 10.015ZM14.7209 5.75098C16.2439 5.75098 16.386 6.108 16.806 7.172L17.647 9.25098H12.501V5.75098H14.7209ZM4.75098 17.251C4.06198 17.251 3.50098 16.69 3.50098 16.001C3.50098 15.312 4.06198 14.751 4.75098 14.751C5.43998 14.751 6.00098 15.312 6.00098 16.001C6.00098 16.69 5.43998 17.251 4.75098 17.251ZM14.751 17.251C14.062 17.251 13.501 16.69 13.501 16.001C13.501 15.312 14.062 14.751 14.751 14.751C15.44 14.751 16.001 15.312 16.001 16.001C16.001 16.69 15.44 17.251 14.751 17.251ZM17.251 14.251H16.855C16.35 13.645 15.6 13.251 14.751 13.251C13.902 13.251 13.152 13.645 12.647 14.251H6.854C6.349 13.645 5.599 13.251 4.75 13.251C3.901 13.251 3.151 13.645 2.646 14.251H2.25C1.837 14.251 1.5 13.915 1.5 13.501V10.751H7.75C8.164 10.751 8.5 10.415 8.5 10.001C8.5 9.58698 8.164 9.25098 7.75 9.25098H1.5V2.50098C1.5 2.08698 1.837 1.75098 2.25 1.75098H10.25C10.663 1.75098 11 2.08698 11 2.50098V10.751H18V13.501C18.001 13.915 17.664 14.251 17.251 14.251Z"/>
</svg>
