<svg width="24" height="24" viewBox="0 0 24 24" fill="none" xmlns="http://www.w3.org/2000/svg">
<path d="M12 22.75C11.231 22.75 10.527 22.397 10.066 21.783L8.56702 19.783C8.39402 19.553 8.12001 19.416 7.83301 19.416H6.33301C3.70001 19.416 2.25 17.966 2.25 15.333V5.33301C2.25 2.70001 3.70001 1.25 6.33301 1.25H17.667C20.3 1.25 21.75 2.70001 21.75 5.33301V15.333C21.75 17.966 20.3 19.416 17.667 19.416H16.167C15.88 19.416 15.605 19.5531 15.433 19.7841L13.933 21.7841C13.473 22.3971 12.769 22.75 12 22.75ZM6.33301 2.75C4.52201 2.75 3.75 3.52201 3.75 5.33301V15.333C3.75 17.144 4.52201 17.916 6.33301 17.916H7.83301C8.58901 17.916 9.31197 18.277 9.76697 18.882L11.267 20.882C11.617 21.349 12.385 21.348 12.733 20.882L14.234 18.882C14.688 18.277 15.412 17.915 16.168 17.915H17.668C19.479 17.915 20.251 17.143 20.251 15.332V5.33203C20.251 3.52103 19.479 2.74902 17.668 2.74902H6.33301V2.75ZM12 9.75C10.621 9.75 9.5 8.628 9.5 7.25C9.5 5.872 10.621 4.75 12 4.75C13.379 4.75 14.5 5.872 14.5 7.25C14.5 8.628 13.379 9.75 12 9.75ZM12 6.25C11.448 6.25 11 6.699 11 7.25C11 7.801 11.448 8.25 12 8.25C12.552 8.25 13 7.801 13 7.25C13 6.699 12.552 6.25 12 6.25ZM13.994 16.25H9.99695C8.58695 16.25 7.745 15.412 7.745 14.009C7.745 12.386 8.75 10.75 10.995 10.75H12.995C15.24 10.75 16.245 12.387 16.245 14.009C16.245 15.412 15.403 16.25 13.994 16.25ZM10.995 12.25C9.473 12.25 9.245 13.352 9.245 14.009C9.245 14.584 9.41395 14.75 9.99695 14.75H13.994C14.577 14.75 14.745 14.584 14.745 14.009C14.745 13.352 14.517 12.25 12.995 12.25H10.995Z" fill="#B8CDE1"/>
</svg>
