<svg width="24" height="24" viewBox="0 0 24 24" fill="none" xmlns="http://www.w3.org/2000/svg">
<path d="M21.413 8.88339L20.343 5.13638C19.961 3.79938 19.566 2.41638 16.738 2.41638H7.26294C4.43494 2.41638 4.03896 3.79938 3.65796 5.13638L2.58801 8.88339C2.36401 9.66539 2.25098 10.4744 2.25098 11.2874V18.1664C2.25098 20.5844 3.58298 21.9164 6.00098 21.9164H18.001C20.419 21.9164 21.751 20.5844 21.751 18.1664V11.2864C21.75 10.4734 21.637 9.66539 21.413 8.88339ZM18.901 5.54837L19.9709 9.29538C19.9819 9.33538 19.9859 9.37739 19.9969 9.41739H12.75V3.91739H16.7371C18.4351 3.91639 18.552 4.32737 18.901 5.54837ZM5.099 5.54837C5.449 4.32737 5.56594 3.91638 7.26294 3.91638H11.25V9.41638H4.00305C4.01405 9.37638 4.01705 9.33438 4.02905 9.29538L5.099 5.54837ZM20.25 18.1664C20.25 19.7434 19.577 20.4164 18 20.4164H6C4.423 20.4164 3.75 19.7434 3.75 18.1664V11.2864C3.75 11.1624 3.769 11.0394 3.776 10.9164H20.224C20.23 11.0404 20.25 11.1624 20.25 11.2864V18.1664ZM15.03 13.3024C15.323 13.5954 15.323 14.0704 15.03 14.3634L11.697 17.6964C11.551 17.8424 11.359 17.9164 11.167 17.9164C10.975 17.9164 10.783 17.8434 10.637 17.6964L8.96997 16.0294C8.67697 15.7364 8.67697 15.2614 8.96997 14.9684C9.26297 14.6754 9.73801 14.6754 10.031 14.9684L11.168 16.1044L13.9709 13.3014C14.2629 13.0104 14.737 13.0104 15.03 13.3024Z" fill="#D8E9FE"/>
</svg>
