<svg xmlns="http://www.w3.org/2000/svg" width="25" height="24" viewBox="0 0 25 24" fill="none">
    <path
        d="M19 2.5H16.5H12.5H7.5C5.21 2.5 4 3.71 4 6V18C4 20.093 5.406 21.5 7.5 21.5H19C20.103 21.5 21 20.603 21 19.5V13.5V11V4.5C21 3.397 20.103 2.5 19 2.5ZM16 3.5V9.13794L14.748 8.42297C14.671 8.37897 14.586 8.35706 14.5 8.35706C14.414 8.35706 14.329 8.37897 14.252 8.42297L13 9.13794V3.5H16ZM7.5 3.5H12V10C12 10.178 12.095 10.343 12.249 10.433C12.403 10.523 12.594 10.523 12.748 10.434L14.5 9.43298L16.252 10.434C16.329 10.478 16.414 10.5 16.5 10.5C16.587 10.5 16.674 10.478 16.751 10.433C16.905 10.343 17 10.179 17 10V3.5H19C19.552 3.5 20 3.949 20 4.5V11V13.5C20 14.051 19.552 14.5 19 14.5H7.5C6.471 14.5 5.612 14.843 5 15.437V6C5 4.271 5.771 3.5 7.5 3.5ZM19 20.5H7.5C5.935 20.5 5 19.565 5 18C5 16.435 5.935 15.5 7.5 15.5H19C19.366 15.5 19.705 15.394 20 15.222V19.5C20 20.051 19.552 20.5 19 20.5Z"
        fill="#A3E9FF" />
</svg>