<svg xmlns="http://www.w3.org/2000/svg" width="18" height="20" viewBox="0 0 18 20" fill="none">
    <path
        d="M11.162 18.577C10.706 19.358 9.89803 19.825 9.00003 19.825C8.10203 19.825 7.29402 19.358 6.83802 18.577C6.69902 18.3389 6.77903 18.0319 7.01803 17.8929C7.25703 17.7539 7.56302 17.834 7.70202 18.073C7.97702 18.544 8.46203 18.825 9.00003 18.825C9.53803 18.825 10.023 18.544 10.298 18.073C10.438 17.835 10.744 17.7549 10.982 17.8929C11.221 18.0319 11.301 18.3389 11.162 18.577ZM17.45 16.5419C17.367 16.7149 17.192 16.825 17 16.825H1.00003C0.808027 16.825 0.63303 16.7149 0.55003 16.5419C0.46703 16.3689 0.490028 16.163 0.610028 16.013C0.629028 15.99 2.50602 13.607 2.50602 10.825V7.31995C2.50602 3.73895 5.42003 0.824951 9.00103 0.824951C12.582 0.824951 15.496 3.73895 15.496 7.31995V10.825C15.496 13.606 17.372 15.989 17.392 16.013C17.51 16.163 17.534 16.3679 17.45 16.5419ZM16.051 15.825C15.424 14.809 14.495 12.949 14.495 10.825V7.31995C14.495 4.28995 12.03 1.82495 9.00003 1.82495C5.97003 1.82495 3.50502 4.28995 3.50502 7.31995V10.825C3.50502 12.949 2.57702 14.809 1.94902 15.825H16.051Z"
        fill="#A3E9FF" />
</svg>