<svg xmlns="http://www.w3.org/2000/svg" width="24" height="24" viewBox="0 0 24 24" fill="none">
    <path
        d="M21.2878 6.88244C21.2868 6.88044 21.2879 6.87846 21.2869 6.87646C21.2849 6.87146 21.2798 6.86845 21.2778 6.86345C20.8908 6.16045 20.2879 5.58045 19.5259 5.24145L13.5259 2.57445C12.5569 2.14445 11.4479 2.14445 10.4789 2.57445L4.47888 5.24145C3.71588 5.58045 3.11381 6.16045 2.72681 6.86345C2.72481 6.86845 2.7199 6.87146 2.7179 6.87646C2.7169 6.87846 2.7178 6.88044 2.7168 6.88244C2.4238 7.42144 2.25391 8.02944 2.25391 8.66744V15.3345C2.25391 16.8145 3.12783 18.1594 4.48083 18.7614L10.4808 21.4285C10.9628 21.6425 11.4798 21.7484 11.9968 21.7504C11.9998 21.7504 12.0019 21.7515 12.0049 21.7515C12.0079 21.7515 12.0098 21.7504 12.0128 21.7504C12.5298 21.7494 13.0468 21.6425 13.5288 21.4285L19.5288 18.7614C20.8818 18.1604 21.7559 16.8155 21.7559 15.3345V8.66744C21.7509 8.02944 21.5808 7.42044 21.2878 6.88244ZM11.0869 3.94445C11.3769 3.81545 11.6899 3.75045 12.0009 3.75045C12.3119 3.75045 12.6248 3.81444 12.9148 3.94344L18.9148 6.61043C19.0848 6.68643 19.2338 6.79146 19.3768 6.90246L16.6438 8.11745L9.38489 4.70046L11.0869 3.94445ZM7.57385 5.50545L14.8329 8.92245L12.9209 9.77245C12.3349 10.0275 11.6638 10.0274 11.0858 9.77444L4.62488 6.90246C4.76788 6.79146 4.91691 6.68543 5.08691 6.61043L7.57385 5.50545ZM5.08691 17.3895C4.27491 17.0285 3.75085 16.2215 3.75085 15.3335V8.66643C3.75085 8.50143 3.7868 8.34346 3.8208 8.18746L10.4808 11.1475C10.7298 11.2555 10.9879 11.3344 11.2509 11.3864V20.1084C11.1969 20.0895 11.1399 20.0784 11.0869 20.0554L5.08691 17.3895ZM20.2509 15.3335C20.2509 16.2215 19.7268 17.0285 18.9148 17.3895L12.9148 20.0564C12.8618 20.0804 12.8049 20.0905 12.7509 20.1095V11.3864C13.0149 11.3334 13.2749 11.2544 13.5249 11.1454L15.8799 10.0984V11.8905C15.8799 12.3045 16.2159 12.6405 16.6299 12.6405C17.0439 12.6405 17.3799 12.3045 17.3799 11.8905V9.43246L20.1798 8.18844C20.2148 8.34544 20.2499 8.50244 20.2499 8.66744V15.3335H20.2509Z"
        fill="white" />
</svg>