<svg xmlns="http://www.w3.org/2000/svg" width="24" height="24" viewBox="0 0 24 24" fill="none">
  <path d="M21 5.5H17.441C16.36 5.5 16.274 5.24201 16.018 4.47501L15.815 3.868C15.543 3.05 14.78 2.5 13.918 2.5H10.08C9.21799 2.5 8.45501 3.05 8.18301 3.868L7.98099 4.47501C7.72499 5.24201 7.63901 5.5 6.55801 5.5H3C2.724 5.5 2.5 5.724 2.5 6C2.5 6.276 2.724 6.5 3 6.5H4.53201L5.314 18.232C5.453 20.309 6.725 21.5 8.806 21.5H15.193C17.274 21.5 18.547 20.309 18.685 18.232L19.467 6.5H21C21.276 6.5 21.5 6.276 21.5 6C21.5 5.724 21.276 5.5 21 5.5ZM9.13199 4.18401C9.26899 3.77501 9.64999 3.5 10.081 3.5H13.919C14.35 3.5 14.731 3.77401 14.867 4.18401L15.07 4.791C15.151 5.033 15.237 5.275 15.355 5.5H8.646C8.764 5.274 8.85 5.033 8.931 4.791L9.13199 4.18401ZM17.688 18.166C17.585 19.715 16.746 20.5 15.194 20.5H8.80701C7.25501 20.5 6.41599 19.715 6.31299 18.166L5.535 6.5H6.55899C6.68299 6.5 6.78401 6.486 6.89401 6.479C6.92901 6.487 6.963 6.5 7 6.5H17C17.038 6.5 17.071 6.486 17.106 6.479C17.216 6.487 17.317 6.5 17.441 6.5H18.465L17.688 18.166ZM14.354 12.354L12.707 14L14.353 15.646C14.548 15.841 14.548 16.158 14.353 16.353C14.255 16.451 14.127 16.499 13.999 16.499C13.871 16.499 13.743 16.45 13.645 16.353L12 14.707L10.354 16.353C10.256 16.451 10.128 16.499 10 16.499C9.872 16.499 9.744 16.45 9.646 16.353C9.451 16.158 9.451 15.841 9.646 15.646L11.292 14L9.646 12.354C9.451 12.159 9.451 11.842 9.646 11.647C9.841 11.452 10.158 11.452 10.353 11.647L11.999 13.293L13.645 11.647C13.84 11.452 14.157 11.452 14.352 11.647C14.547 11.842 14.549 12.158 14.354 12.354Z" fill="#A3E9FF"/>
</svg>