<svg xmlns="http://www.w3.org/2000/svg" width="24" height="25" viewBox="0 0 24 25" fill="none">
    <path
        d="M12.0009 2.82495C6.76392 2.82495 2.50287 7.08597 2.50287 12.324C2.50287 13.688 2.80605 15.061 3.38105 16.299C3.52505 16.599 3.53589 16.9729 3.41889 17.3439L2.57782 19.845C2.39682 20.387 2.53803 20.976 2.94403 21.382C3.23203 21.671 3.61383 21.825 4.00483 21.825C4.16383 21.825 4.32388 21.7989 4.48188 21.7469L6.97504 20.91C7.35204 20.789 7.72593 20.801 8.03193 20.947C9.26493 21.52 10.6379 21.8229 12.0019 21.8229C17.2389 21.8229 21.5009 17.562 21.5009 12.324C21.5009 7.08597 17.2379 2.82495 12.0009 2.82495ZM12.0009 20.8229C10.7819 20.8229 9.55595 20.5519 8.45795 20.0419C7.92595 19.7889 7.29203 19.7579 6.66303 19.9589L4.16401 20.798C3.98001 20.858 3.78982 20.812 3.65082 20.674C3.51182 20.5359 3.46482 20.3429 3.52582 20.1619L4.36884 17.655C4.56584 17.033 4.53585 16.3989 4.28485 15.8729C3.77285 14.7699 3.50287 13.543 3.50287 12.324C3.50287 7.63797 7.31492 3.82495 12.0009 3.82495C16.6879 3.82495 20.4999 7.63697 20.4999 12.324C20.4999 17.011 16.6879 20.8229 12.0009 20.8229ZM15.3759 9.97095C15.5709 10.1659 15.5709 10.483 15.3759 10.678L11.3759 14.678C11.2779 14.776 11.1499 14.824 11.0219 14.824C10.8939 14.824 10.7659 14.775 10.6679 14.678L8.66791 12.678C8.47291 12.483 8.47291 12.1659 8.66791 11.9709C8.86291 11.7759 9.17994 11.7759 9.37494 11.9709L11.0209 13.6169L14.6669 9.97095C14.8639 9.77595 15.1809 9.77595 15.3759 9.97095Z"
        fill="#A3E9FF" />
</svg>