<svg width="21" height="20" viewBox="0 0 21 20" fill="none" xmlns="http://www.w3.org/2000/svg">
<path fill-rule="evenodd" clip-rule="evenodd" d="M7.05005 5.85383C6.70487 5.85383 6.42505 6.11901 6.42505 6.44612L6.42505 14.7383C6.42505 15.8379 6.88599 16.8925 7.70646 17.67C8.52693 18.4475 9.63973 18.8844 10.8 18.8844C11.9604 18.8844 13.0732 18.4475 13.8936 17.67C14.7141 16.8925 15.175 15.8379 15.175 14.7383V3.92886C15.175 2.31497 13.7638 1.02661 12.05 1.02661C10.3363 1.02661 8.92505 2.31497 8.92505 3.92886V14.5902C8.92505 15.0615 9.12259 15.5134 9.47422 15.8467C9.82585 16.1799 10.3028 16.3671 10.8 16.3671C11.2973 16.3671 11.7742 16.1799 12.1259 15.8467C12.4775 15.5134 12.675 15.0615 12.675 14.5902V6.29805C12.675 5.97093 12.3952 5.70575 12.05 5.70575C11.7049 5.70575 11.425 5.97093 11.425 6.29805V14.5902C11.425 14.7473 11.3592 14.8979 11.242 15.009C11.1248 15.1201 10.9658 15.1825 10.8 15.1825C10.6343 15.1825 10.4753 15.1201 10.3581 15.009C10.2409 14.8979 10.175 14.7473 10.175 14.5902V3.92886C10.175 2.99589 10.9982 2.2112 12.05 2.2112C13.1019 2.2112 13.925 2.99589 13.925 3.92886V14.7383C13.925 15.5237 13.5958 16.277 13.0098 16.8324C12.4237 17.3877 11.6289 17.6998 10.8 17.6998C9.97125 17.6998 9.17639 17.3877 8.59034 16.8324C8.00429 16.277 7.67505 15.5237 7.67505 14.7383L7.67505 6.44612C7.67505 6.11901 7.39523 5.85383 7.05005 5.85383Z" fill="#A3E9FF"/>
</svg>
