<svg xmlns="http://www.w3.org/2000/svg" width="24" height="25" viewBox="0 0 24 25" fill="none">
    <path
        d="M21 5.82495H17.441C16.36 5.82495 16.274 5.56696 16.018 4.79996L15.815 4.19295C15.543 3.37495 14.78 2.82495 13.918 2.82495H10.08C9.218 2.82495 8.455 3.37495 8.183 4.19295L7.981 4.79996C7.725 5.56696 7.639 5.82495 6.558 5.82495H3C2.724 5.82495 2.5 6.04895 2.5 6.32495C2.5 6.60095 2.724 6.82495 3 6.82495H4.532L5.314 18.5569C5.453 20.6339 6.725 21.825 8.806 21.825H15.193C17.274 21.825 18.547 20.6339 18.685 18.5569L19.467 6.82495H21C21.276 6.82495 21.5 6.60095 21.5 6.32495C21.5 6.04895 21.276 5.82495 21 5.82495ZM9.132 4.50896C9.269 4.09996 9.64999 3.82495 10.081 3.82495H13.919C14.35 3.82495 14.731 4.09896 14.867 4.50896L15.07 5.11595C15.151 5.35795 15.237 5.59995 15.355 5.82495H8.646C8.764 5.59895 8.85 5.35795 8.931 5.11595L9.132 4.50896ZM17.688 18.491C17.585 20.04 16.746 20.825 15.194 20.825H8.80701C7.25501 20.825 6.416 20.04 6.313 18.491L5.535 6.82495H6.55901C6.68301 6.82495 6.784 6.81096 6.894 6.80396C6.929 6.81195 6.963 6.82495 7 6.82495H17C17.038 6.82495 17.071 6.81096 17.106 6.80396C17.216 6.81195 17.317 6.82495 17.441 6.82495H18.465L17.688 18.491ZM14.854 12.304C15.049 12.499 15.049 12.816 14.854 13.011L11.521 16.345C11.427 16.439 11.3 16.491 11.167 16.491C11.034 16.491 10.907 16.438 10.813 16.345L9.146 14.6779C8.951 14.4829 8.951 14.1659 9.146 13.9709C9.341 13.7759 9.658 13.7759 9.853 13.9709L11.166 15.284L14.146 12.304C14.342 12.109 14.658 12.109 14.854 12.304Z"
        fill="#A3E9FF" />
</svg>