<svg xmlns="http://www.w3.org/2000/svg" width="25" height="24" viewBox="0 0 25 24" fill="none">
    <path
        d="M21.593 13.897L20.603 12.907C20.339 12.644 19.9931 12.537 19.6201 12.5C19.2491 12.5 18.8989 12.646 18.6379 12.909L13.147 18.425C13.054 18.519 13.001 18.645 13.001 18.778V21C13.001 21.276 13.225 21.5 13.501 21.5H15.7241C15.8561 21.5 15.9829 21.448 16.0769 21.354L21.593 15.863C21.857 15.601 22.001 15.252 22.002 14.881C22 14.51 21.855 14.16 21.593 13.897ZM15.5171 20.5H14V18.984L17.8311 15.136L19.364 16.67L15.5171 20.5ZM20.886 15.155L20.073 15.965L18.5371 14.428L19.3459 13.615C19.4189 13.541 19.5171 13.5 19.6201 13.5H19.6211C19.7251 13.5 19.822 13.54 19.895 13.614L20.885 14.604C20.958 14.678 20.999 14.776 20.999 14.88C21 14.984 20.959 15.081 20.886 15.155ZM10.5 19.5H6.5C4.771 19.5 4 18.729 4 17V5C4 3.271 4.771 2.5 6.5 2.5H12V5C12 7.29 13.21 8.5 15.5 8.5H18V10C18 10.276 18.224 10.5 18.5 10.5C18.776 10.5 19 10.276 19 10V8C19 7.867 18.947 7.74 18.854 7.646L12.854 1.646C12.76 1.552 12.633 1.5 12.5 1.5H6.5C4.21 1.5 3 2.71 3 5V17C3 19.29 4.21 20.5 6.5 20.5H10.5C10.776 20.5 11 20.276 11 20C11 19.724 10.776 19.5 10.5 19.5ZM13 5V3.207L17.293 7.5H15.5C13.771 7.5 13 6.729 13 5ZM14.5 10.5C14.776 10.5 15 10.724 15 11C15 11.276 14.776 11.5 14.5 11.5H7.5C7.224 11.5 7 11.276 7 11C7 10.724 7.224 10.5 7.5 10.5H14.5ZM12 15C12 15.276 11.776 15.5 11.5 15.5H7.5C7.224 15.5 7 15.276 7 15C7 14.724 7.224 14.5 7.5 14.5H11.5C11.776 14.5 12 14.724 12 15Z"
        fill="#A3E9FF" />
</svg>