<svg xmlns="http://www.w3.org/2000/svg" width="16" height="17" viewBox="0 0 16 17" fill="none">
    <path
        d="M12.0001 3.3252H4.00008C2.47341 3.3252 1.66675 4.13186 1.66675 5.65853V11.6585C1.66675 13.1852 2.47341 13.9919 4.00008 13.9919H12.0001C13.5267 13.9919 14.3334 13.1852 14.3334 11.6585V5.65853C14.3334 4.13186 13.5267 3.3252 12.0001 3.3252ZM13.6667 11.6585C13.6667 12.8112 13.1527 13.3252 12.0001 13.3252H4.00008C2.84741 13.3252 2.33341 12.8112 2.33341 11.6585V5.65853C2.33341 4.50586 2.84741 3.99186 4.00008 3.99186H12.0001C13.1527 3.99186 13.6667 4.50586 13.6667 5.65853V11.6585ZM11.9361 6.12919C12.0441 6.27786 12.0114 6.48653 11.8627 6.59453L8.58813 8.97586C8.41214 9.10386 8.20608 9.16787 8.00008 9.16787C7.79342 9.16787 7.58803 9.10386 7.41203 8.97586L4.13745 6.59453C3.98812 6.48653 3.95605 6.27786 4.06405 6.12919C4.17205 5.97986 4.38138 5.94786 4.52938 6.05586L7.80412 8.43719C7.92145 8.52186 8.07871 8.52253 8.19604 8.43719L11.4708 6.05586C11.6195 5.94786 11.8281 5.97986 11.9361 6.12919Z"
        fill="#A3E9FF" />
</svg>