<svg xmlns="http://www.w3.org/2000/svg" width="29" height="28" viewBox="0 0 29 28" fill="none">
    <path
        d="M14.5 1.75C7.745 1.75 2.25 7.245 2.25 14C2.25 20.0667 6.60167 25.165 12.5867 26.0983C12.75 26.1217 12.925 26.075 13.0533 25.97C13.1817 25.865 13.2517 25.7017 13.2517 25.5267V17.5C13.2517 17.1733 12.995 16.9167 12.6683 16.9167H10.4283V14.5833H12.6683C12.995 14.5833 13.2517 14.3267 13.2517 14V11.4333C13.2517 8.94834 14.605 7.58333 17.0783 7.58333C17.8367 7.58333 18.6183 7.66501 19.1083 7.73501V9.41501H18.2217C16.6933 9.41501 15.7367 10.3367 15.7367 11.8183V14.0117C15.7367 14.3383 15.9933 14.595 16.32 14.595H19.015L18.665 16.9283H16.32C15.9933 16.9283 15.7367 17.185 15.7367 17.5117V25.5383C15.7367 25.7133 15.8067 25.8767 15.935 25.9817C16.04 26.075 16.18 26.1217 16.32 26.1217C16.355 26.1217 16.3783 26.1217 16.4133 26.1217C22.3983 25.1767 26.75 20.09 26.75 14.0233C26.75 7.26834 21.255 1.77334 14.5 1.77334V1.75ZM16.9033 24.8267V18.0833H19.1667C19.4583 18.0833 19.7033 17.8733 19.7383 17.5817L20.2633 14.0817C20.2867 13.9183 20.24 13.7433 20.1233 13.615C20.0067 13.4867 19.855 13.4167 19.68 13.4167H16.8917V11.8067C16.8917 10.6983 17.6383 10.57 18.21 10.57H19.68C20.0067 10.57 20.2633 10.3133 20.2633 9.98666V7.22167C20.2633 6.94167 20.0533 6.69666 19.7733 6.65C19.715 6.65 18.3733 6.41667 17.0667 6.41667C13.94 6.41667 12.0733 8.295 12.0733 11.4333V13.4167H9.83333C9.50667 13.4167 9.25 13.6733 9.25 14V17.5C9.25 17.8267 9.50667 18.0833 9.83333 18.0833H12.0733V24.8267C7.01 23.7183 3.39334 19.2733 3.39334 14C3.39334 7.88667 8.36333 2.91667 14.4767 2.91667C20.59 2.91667 25.56 7.88667 25.56 14C25.56 19.2617 21.955 23.7067 16.88 24.8267H16.9033Z"
        fill="#A3E9FF" />
</svg>