<svg xmlns="http://www.w3.org/2000/svg" width="25" height="24" viewBox="0 0 25 24" fill="none">
    <path
        d="M18.5 2.5H6.5C4.21 2.5 3 3.71 3 6V21C3 21.202 3.12208 21.385 3.30908 21.462C3.37108 21.488 3.436 21.5 3.5 21.5C3.63 21.5 3.758 21.449 3.854 21.354L6.70801 18.5H18.5C20.79 18.5 22 17.29 22 15V6C22 3.71 20.79 2.5 18.5 2.5ZM21 15C21 16.729 20.229 17.5 18.5 17.5H6.5C6.367 17.5 6.24 17.553 6.146 17.646L4 19.792V6C4 4.271 4.771 3.5 6.5 3.5H18.5C20.229 3.5 21 4.271 21 6V15ZM14.27 6.5C13.417 6.521 12.847 6.91799 12.5 7.33899C12.152 6.91899 11.613 6.474 10.729 6.5C9.882 6.504 9.17391 6.82403 8.68091 7.42603C8.08591 8.15203 7.86301 9.26004 8.08301 10.389C8.64801 13.278 12.145 14.889 12.293 14.955C12.358 14.985 12.429 14.999 12.499 14.999C12.569 14.999 12.6401 14.984 12.7051 14.955C12.8531 14.888 16.35 13.278 16.915 10.389C17.135 9.25804 16.9119 8.15005 16.3159 7.42505C15.8249 6.82405 15.117 6.504 14.27 6.5ZM15.9341 10.198C15.5391 12.219 13.212 13.572 12.5 13.942C11.788 13.571 9.46094 12.219 9.06494 10.197C8.90094 9.35702 9.04605 8.55796 9.45605 8.05896C9.75805 7.68996 10.1869 7.50202 10.7329 7.49902C10.7359 7.49902 10.738 7.49902 10.74 7.49902C11.673 7.49902 12.0119 8.43905 12.0259 8.47705C12.0929 8.67905 12.2831 8.81504 12.4971 8.81604C12.6811 8.82404 12.9009 8.68198 12.9729 8.47998C12.9879 8.43998 13.327 7.5 14.259 7.5C14.261 7.5 14.2631 7.5 14.2661 7.5C14.8131 7.502 15.2429 7.68996 15.5449 8.05896C15.9519 8.55596 16.0991 9.356 15.9341 10.198Z"
        fill="#A3E9FF" />
</svg>