<svg xmlns="http://www.w3.org/2000/svg" width="25" height="24" viewBox="0 0 25 24" fill="none">
    <g clip-path="url(#clip0_1578_11667)">
        <path
            d="M4.6823 0C2.25473 0 0.300049 1.95468 0.300049 4.38226V19.6178C0.300049 22.0453 2.25473 24 4.6823 24H12.9398V14.6175H10.4588V11.2395H12.9398V8.35351C12.9398 6.08611 14.4057 4.00426 17.7826 4.00426C19.1498 4.00426 20.1608 4.13551 20.1608 4.13551L20.0813 7.29002C20.0813 7.29002 19.0502 7.28028 17.925 7.28028C16.7073 7.28028 16.512 7.84135 16.512 8.77279V11.2395H20.178L20.0183 14.6175H16.512V24H19.9178C22.3454 24 24.3 22.0454 24.3 19.6178V4.38228C24.3 1.9547 22.3454 2.4e-05 19.9178 2.4e-05H4.68228L4.6823 0Z"
            fill="white" />
    </g>
    <defs>
        <clipPath id="clip0_1578_11667">
            <rect width="24" height="24" fill="white" transform="translate(0.300049)" />
        </clipPath>
    </defs>
</svg>