<svg xmlns="http://www.w3.org/2000/svg" width="29" height="28" viewBox="0 0 29 28" fill="none">
    <path
        d="M25.5133 9.63671C25.4433 8.20171 25.175 6.37005 23.6467 4.85338C22.13 3.33672 20.2983 3.05671 18.8633 2.98671C17.1133 2.88171 11.8867 2.88171 10.1367 2.98671C8.71334 3.05671 6.88166 3.32505 5.35333 4.85338C3.83666 6.37005 3.55666 8.20171 3.48666 9.63671C3.38166 11.3867 3.38166 16.6134 3.48666 18.3634C3.55666 19.7984 3.825 21.63 5.35333 23.1467C6.88166 24.6634 8.71333 24.9434 10.125 25.0134C11 25.06 12.75 25.0834 14.4883 25.0834C16.2266 25.0834 17.965 25.06 18.84 25.0134C20.2633 24.9434 22.1067 24.675 23.6233 23.1467C25.14 21.63 25.42 19.7984 25.49 18.3634C25.595 16.6134 25.595 11.3984 25.49 9.63671H25.5133ZM24.3467 18.2934C24.2533 20.1367 23.7983 21.3267 22.8183 22.3067C21.8383 23.2867 20.6367 23.7417 18.805 23.835C17.0783 23.9284 11.9333 23.9284 10.2067 23.835C8.375 23.7417 7.17333 23.2867 6.19333 22.3067C5.21333 21.3267 4.75833 20.125 4.665 18.2817C4.57167 16.555 4.57167 11.41 4.665 9.68338C4.75833 7.84005 5.21333 6.63838 6.19333 5.67005C7.17333 4.69005 8.37498 4.23505 10.2183 4.14172C11.0816 4.09505 12.7967 4.07172 14.5117 4.07172C16.2267 4.07172 17.9533 4.09505 18.8167 4.14172C20.6483 4.23505 21.85 4.69005 22.83 5.67005C23.81 6.65005 24.265 7.85172 24.3583 9.68338C24.4517 11.41 24.4517 16.555 24.3583 18.2817L24.3467 18.2934ZM14.5 8.75005C11.6067 8.75005 9.24999 11.1067 9.24999 14C9.24999 16.8934 11.6067 19.25 14.5 19.25C17.3933 19.25 19.75 16.8934 19.75 14C19.75 11.1067 17.3933 8.75005 14.5 8.75005ZM14.5 18.0834C12.2483 18.0834 10.4167 16.2517 10.4167 14C10.4167 11.7484 12.2483 9.91671 14.5 9.91671C16.7517 9.91671 18.5833 11.7484 18.5833 14C18.5833 16.2517 16.7517 18.0834 14.5 18.0834ZM21.815 7.58338C21.815 8.06171 21.43 8.45838 20.94 8.45838C20.45 8.45838 20.065 8.06171 20.065 7.58338C20.065 7.10505 20.45 6.70838 20.94 6.70838C21.43 6.70838 21.815 7.10505 21.815 7.58338Z"
        fill="#A3E9FF" />
</svg>