<svg xmlns="http://www.w3.org/2000/svg" width="25" height="24" viewBox="0 0 25 24" fill="none">
    <g clip-path="url(#clip0_1578_11669)">
        <path
            d="M24.2228 7.09551C24.2093 6.08613 24.0203 5.08677 23.6643 4.14216C23.3556 3.34538 22.8841 2.62177 22.2798 2.01754C21.6756 1.41332 20.952 0.941782 20.1552 0.633052C19.2228 0.283017 18.2376 0.0937467 17.2419 0.0733008C15.9598 0.015993 15.5533 0 12.2987 0C9.04416 0 8.62702 8.93672e-08 7.35425 0.0733008C6.3589 0.093897 5.37426 0.283165 4.44221 0.633052C3.64531 0.941567 2.92158 1.41303 2.31733 2.01728C1.71308 2.62153 1.24162 3.34526 0.933101 4.14216C0.582365 5.07392 0.393505 6.05879 0.374682 7.0542C0.317374 8.33763 0.300049 8.74411 0.300049 11.9987C0.300049 15.2532 0.300049 15.669 0.374682 16.9431C0.394673 17.94 0.58259 18.9236 0.933101 19.8578C1.24213 20.6545 1.71395 21.3779 2.3184 21.9819C2.92285 22.5859 3.64665 23.0572 4.44354 23.3656C5.37304 23.7297 6.35785 23.9325 7.35558 23.9653C8.63901 24.0227 9.0455 24.04 12.3 24.04C15.5546 24.04 15.9718 24.04 17.2445 23.9653C18.2403 23.9457 19.2255 23.7569 20.1579 23.4069C20.9545 23.0978 21.6779 22.6262 22.2821 22.022C22.8862 21.4178 23.3579 20.6944 23.667 19.8978C24.0175 18.9649 24.2054 17.9813 24.2254 16.9831C24.2827 15.701 24.3 15.2945 24.3 12.0386C24.2974 8.7841 24.2974 8.37095 24.2228 7.09551ZM12.2907 18.1533C8.8869 18.1533 6.12946 15.3958 6.12946 11.992C6.12946 8.58818 8.8869 5.83074 12.2907 5.83074C13.9248 5.83074 15.4919 6.47987 16.6474 7.63533C17.8029 8.7908 18.452 10.3579 18.452 11.992C18.452 13.6261 17.8029 15.1932 16.6474 16.3487C15.4919 17.5041 13.9248 18.1533 12.2907 18.1533ZM18.6972 7.03954C18.5085 7.03971 18.3216 7.00267 18.1472 6.93053C17.9728 6.8584 17.8144 6.75258 17.6809 6.61913C17.5475 6.48569 17.4417 6.32724 17.3695 6.15285C17.2974 5.97846 17.2603 5.79156 17.2605 5.60284C17.2605 5.41426 17.2977 5.22753 17.3698 5.0533C17.442 4.87907 17.5478 4.72077 17.6811 4.58742C17.8145 4.45407 17.9728 4.34829 18.147 4.27613C18.3212 4.20396 18.508 4.16681 18.6965 4.16681C18.8851 4.16681 19.0719 4.20396 19.2461 4.27613C19.4203 4.34829 19.5786 4.45407 19.712 4.58742C19.8453 4.72077 19.9511 4.87907 20.0233 5.0533C20.0954 5.22753 20.1326 5.41426 20.1326 5.60284C20.1326 6.39716 19.4902 7.03954 18.6972 7.03954Z"
            fill="white" />
        <path
            d="M12.3 15.75C14.3711 15.75 16.05 14.0711 16.05 12C16.05 9.92893 14.3711 8.25 12.3 8.25C10.229 8.25 8.55005 9.92893 8.55005 12C8.55005 14.0711 10.229 15.75 12.3 15.75Z"
            fill="white" />
    </g>
    <defs>
        <clipPath id="clip0_1578_11669">
            <rect width="24" height="24" fill="white" transform="translate(0.300049)" />
        </clipPath>
    </defs>
</svg>