<svg width="24" height="24" viewBox="0 0 24 24" fill="none" xmlns="http://www.w3.org/2000/svg">
<path d="M21.686 13.0811C21.148 18.0231 16.984 21.75 12 21.75C8.603 21.75 5.504 19.979 3.75 17.186V20C3.75 20.414 3.414 20.75 3 20.75C2.586 20.75 2.25 20.414 2.25 20V15C2.25 14.586 2.586 14.25 3 14.25H8C8.414 14.25 8.75 14.586 8.75 15C8.75 15.414 8.414 15.75 8 15.75H4.66992C6.05992 18.476 8.877 20.25 12 20.25C16.217 20.25 19.7391 17.0979 20.1951 12.9189C20.2391 12.5059 20.613 12.2109 21.021 12.2539C21.434 12.2989 21.73 12.6691 21.686 13.0811ZM21 3.25C20.586 3.25 20.25 3.586 20.25 4V6.81396C18.496 4.02096 15.397 2.25 12 2.25C7.017 2.25 2.85296 5.97695 2.31396 10.9189C2.26896 11.3309 2.56603 11.7011 2.97803 11.7461C3.00503 11.7491 3.03306 11.75 3.06006 11.75C3.43806 11.75 3.76296 11.4651 3.80396 11.0811C4.25996 6.90205 7.78302 3.75 11.999 3.75C15.123 3.75 17.9391 5.524 19.3291 8.25H16C15.586 8.25 15.25 8.586 15.25 9C15.25 9.414 15.586 9.75 16 9.75H21C21.414 9.75 21.75 9.414 21.75 9V4C21.75 3.586 21.414 3.25 21 3.25Z" fill="#A3E9FF"/>
</svg>
