<svg xmlns="http://www.w3.org/2000/svg" width="24" height="25" viewBox="0 0 24 25" fill="none">
    <path
        d="M21.686 13.406C21.148 18.348 16.984 22.075 12 22.075C8.603 22.075 5.504 20.304 3.75 17.511V20.325C3.75 20.739 3.414 21.075 3 21.075C2.586 21.075 2.25 20.739 2.25 20.325V15.325C2.25 14.911 2.586 14.575 3 14.575H8C8.414 14.575 8.75 14.911 8.75 15.325C8.75 15.739 8.414 16.075 8 16.075H4.66992C6.05992 18.801 8.877 20.575 12 20.575C16.217 20.575 19.7391 17.4229 20.1951 13.2439C20.2391 12.8309 20.613 12.5359 21.021 12.5789C21.434 12.6239 21.73 12.994 21.686 13.406ZM21 3.57495C20.586 3.57495 20.25 3.91095 20.25 4.32495V7.13892C18.496 4.34592 15.397 2.57495 12 2.57495C7.017 2.57495 2.85296 6.3019 2.31396 11.2439C2.26896 11.6559 2.56603 12.026 2.97803 12.071C3.00503 12.074 3.03306 12.075 3.06006 12.075C3.43806 12.075 3.76296 11.79 3.80396 11.406C4.25996 7.22701 7.78302 4.07495 11.999 4.07495C15.123 4.07495 17.9391 5.84895 19.3291 8.57495H16C15.586 8.57495 15.25 8.91095 15.25 9.32495C15.25 9.73895 15.586 10.075 16 10.075H21C21.414 10.075 21.75 9.73895 21.75 9.32495V4.32495C21.75 3.91095 21.414 3.57495 21 3.57495Z"
        fill="#A3E9FF" />
</svg>