<svg xmlns="http://www.w3.org/2000/svg" width="25" height="24" viewBox="0 0 25 24" fill="none">
    <path
        d="M12.5 3.5C6.906 3.5 3 6.99598 3 12.001C3 14.065 3.66009 15.913 4.91309 17.361C4.77609 17.967 4.39692 18.923 3.34692 19.771C3.03492 20.035 2.92306 20.457 3.06006 20.844C3.19706 21.228 3.54512 21.4829 3.94312 21.4919C4.07812 21.4969 4.21589 21.499 4.35889 21.499C5.85789 21.499 7.7309 21.2069 9.0459 19.9919C10.1289 20.3299 11.289 20.502 12.501 20.502C18.095 20.502 22.001 17.006 22.001 12.001C22.001 6.99598 18.094 3.5 12.5 3.5ZM12.5 19.5031C11.288 19.5031 10.135 19.317 9.073 18.95C8.885 18.885 8.67992 18.9371 8.54492 19.0811C7.37092 20.3341 5.42793 20.542 4.00293 20.542C3.99693 20.542 3.98989 20.542 3.98389 20.542C5.05389 19.677 5.75109 18.522 5.94409 17.29C5.96709 17.139 5.92089 16.986 5.81689 16.873C4.62889 15.586 4 13.901 4 12.001C4 7.58398 7.495 4.5 12.5 4.5C17.505 4.5 21 7.58398 21 12.001C21 16.418 17.505 19.5031 12.5 19.5031ZM13.25 12C13.25 12.415 12.9159 12.75 12.5039 12.75C12.0929 12.75 11.75 12.415 11.75 12C11.75 11.585 12.077 11.25 12.489 11.25H12.5039C12.9159 11.25 13.25 11.585 13.25 12ZM17.25 12C17.25 12.415 16.9159 12.75 16.5039 12.75C16.0929 12.75 15.75 12.415 15.75 12C15.75 11.585 16.077 11.25 16.489 11.25H16.5039C16.9159 11.25 17.25 11.585 17.25 12ZM9.25 12C9.25 12.415 8.91591 12.75 8.50391 12.75C8.09291 12.75 7.75 12.415 7.75 12C7.75 11.585 8.07701 11.25 8.48901 11.25H8.50391C8.91591 11.25 9.25 11.585 9.25 12Z"
        fill="#A3E9FF" />
</svg>