<svg xmlns="http://www.w3.org/2000/svg" width="25" height="24" viewBox="0 0 25 24" fill="none">
    <path
        d="M21.673 8.785L20.603 5.03799C20.23 3.73299 19.877 2.5 17.238 2.5H7.76294C5.12294 2.5 4.77095 3.73299 4.39795 5.03799L3.328 8.785C3.111 9.545 3.00098 10.33 3.00098 11.12V18C3.00098 20.29 4.21098 21.5 6.50098 21.5H18.501C20.791 21.5 22.001 20.29 22.001 18V11.12C22 10.331 21.89 9.545 21.673 8.785ZM19.642 5.31299L20.712 9.06C20.753 9.205 20.7731 9.354 20.8051 9.5H13V3.5H17.2371C19.1231 3.5 19.285 4.06799 19.642 5.31299ZM5.35803 5.31299C5.71403 4.06799 5.87696 3.5 7.76196 3.5H11.999V9.5H4.19397C4.22597 9.354 4.24599 9.205 4.28699 9.06L5.35803 5.31299ZM21 18C21 19.729 20.229 20.5 18.5 20.5H6.5C4.771 20.5 4 19.729 4 18V11.12C4 10.912 4.02597 10.706 4.04297 10.5H20.957C20.974 10.707 21 10.913 21 11.12V18ZM11 17C11 17.276 10.776 17.5 10.5 17.5H7.5C7.224 17.5 7 17.276 7 17C7 16.724 7.224 16.5 7.5 16.5H10.5C10.776 16.5 11 16.724 11 17Z"
        fill="#A3E9FF" />
</svg>