<svg xmlns="http://www.w3.org/2000/svg" width="25" height="24" viewBox="0 0 25 24" fill="none">
    <path
        d="M19 6.521V6C19 3.71 17.79 2.5 15.5 2.5H5.5C4.121 2.5 3 3.622 3 5V18C3 20.29 4.21 21.5 6.5 21.5H18.5C20.79 21.5 22 20.29 22 18V10C22 7.883 20.966 6.689 19 6.521ZM21 16H17C15.897 16 15 15.103 15 14C15 12.897 15.897 12 17 12H21V16ZM5.5 3.5H15.5C17.229 3.5 18 4.271 18 6V6.5H5.5C4.673 6.5 4 5.827 4 5C4 4.173 4.673 3.5 5.5 3.5ZM18.5 20.5H6.5C4.771 20.5 4 19.729 4 18V6.99902C4.418 7.31302 4.938 7.5 5.5 7.5H18.5C20.229 7.5 21 8.271 21 10V11H17C15.346 11 14 12.346 14 14C14 15.654 15.346 17 17 17H21V18C21 19.729 20.229 20.5 18.5 20.5ZM17.489 13.25H17.504C17.917 13.25 18.25 13.585 18.25 14C18.25 14.415 17.916 14.75 17.504 14.75C17.093 14.75 16.75 14.415 16.75 14C16.75 13.585 17.077 13.25 17.489 13.25Z"
        fill="#A3E9FF" />
</svg>