<svg xmlns="http://www.w3.org/2000/svg" width="25" height="24" viewBox="0 0 25 24" fill="none">
    <path
        d="M22.0126 4.5V8C22.0126 8.276 21.7886 8.5 21.5126 8.5C21.2366 8.5 21.0126 8.276 21.0126 8V4.5C21.0126 3.78 20.7326 3.5 20.0126 3.5H16.5126C16.2366 3.5 16.0126 3.276 16.0126 3C16.0126 2.724 16.2366 2.5 16.5126 2.5H20.0126C21.2836 2.5 22.0126 3.229 22.0126 4.5ZM3.51256 8.5C3.78856 8.5 4.01256 8.276 4.01256 8V4.5C4.01256 3.78 4.29256 3.5 5.01256 3.5H8.51256C8.78856 3.5 9.01256 3.276 9.01256 3C9.01256 2.724 8.78856 2.5 8.51256 2.5H5.01256C3.74156 2.5 3.01256 3.229 3.01256 4.5V8C3.01256 8.276 3.23656 8.5 3.51256 8.5ZM8.51256 20.5H5.01256C4.29256 20.5 4.01256 20.22 4.01256 19.5V16C4.01256 15.724 3.78856 15.5 3.51256 15.5C3.23656 15.5 3.01256 15.724 3.01256 16V19.5C3.01256 20.771 3.74156 21.5 5.01256 21.5H8.51256C8.78856 21.5 9.01256 21.276 9.01256 21C9.01256 20.724 8.78856 20.5 8.51256 20.5ZM21.5126 15.5C21.2366 15.5 21.0126 15.724 21.0126 16V19.5C21.0126 20.22 20.7326 20.5 20.0126 20.5H16.5126C16.2366 20.5 16.0126 20.724 16.0126 21C16.0126 21.276 16.2366 21.5 16.5126 21.5H20.0126C21.2836 21.5 22.0126 20.771 22.0126 19.5V16C22.0126 15.724 21.7886 15.5 21.5126 15.5ZM9.68553 8.33301C9.68553 6.77101 10.9565 5.5 12.5185 5.5C14.0805 5.5 15.3525 6.77101 15.3525 8.33301C15.3525 9.89501 14.0815 11.166 12.5185 11.166C10.9555 11.166 9.68553 9.89601 9.68553 8.33301ZM10.6855 8.33301C10.6855 9.34401 11.5075 10.166 12.5185 10.166C13.5305 10.166 14.3525 9.34401 14.3525 8.33301C14.3525 7.32201 13.5305 6.5 12.5185 6.5C11.5075 6.5 10.6855 7.32201 10.6855 8.33301ZM15.1776 18.5H9.84752C8.23452 18.5 7.34557 17.617 7.34557 16.012C7.34557 14.238 8.34955 12.166 11.1796 12.166H13.8456C16.6756 12.166 17.6796 14.238 17.6796 16.012C17.6796 17.617 16.7906 18.5 15.1776 18.5ZM16.6796 16.012C16.6796 15.345 16.4756 13.166 13.8456 13.166H11.1796C8.54955 13.166 8.34557 15.344 8.34557 16.012C8.34557 17.055 8.79452 17.5 9.84752 17.5H15.1776C16.2306 17.5 16.6796 17.055 16.6796 16.012Z"
        fill="#A3E9FF" />
</svg>