<svg xmlns="http://www.w3.org/2000/svg" width="24" height="24" viewBox="0 0 24 24" fill="none">
    <path
        d="M20.5229 15.3196L17.8798 13.7436C16.7118 13.0476 15.2078 13.3876 14.4528 14.5146L13.571 15.8306C11.205 14.7336 9.26688 12.7906 8.16888 10.4146L9.48089 9.54257C10.6109 8.79157 10.9549 7.28757 10.2629 6.11957L8.69891 3.48056C8.26691 2.75056 7.41605 2.37056 6.56805 2.54156C5.19205 2.81656 3.98083 3.65958 3.24383 4.85458C2.51183 6.04358 2.30994 7.43257 2.67694 8.76657C4.34694 14.8426 9.16093 19.6536 15.2399 21.3226C15.6749 21.4416 16.114 21.5006 16.551 21.5006C17.456 21.5006 18.3479 21.2476 19.1489 20.7536C20.3429 20.0166 21.1859 18.8056 21.4609 17.4306C21.6269 16.6016 21.2509 15.7536 20.5229 15.3196ZM20.4799 17.2346C20.2589 18.3386 19.583 19.3116 18.624 19.9036C17.674 20.4886 16.566 20.6506 15.506 20.3596C9.76504 18.7836 5.21803 14.2406 3.64203 8.50256C3.34903 7.43956 3.50988 6.33058 4.09588 5.38058C4.68788 4.42158 5.65992 3.74356 6.78192 3.51956C6.84692 3.50656 6.91299 3.49957 6.97699 3.49957C7.32699 3.49957 7.65805 3.68257 7.83905 3.99057L9.40203 6.62958C9.82303 7.33958 9.61396 8.25357 8.92596 8.71057L7.26483 9.81558C7.06583 9.94858 6.98901 10.2036 7.08001 10.4246C8.29601 13.3386 10.658 15.7066 13.56 16.9196C13.78 17.0116 14.0359 16.9356 14.1669 16.7366L15.2819 15.0716C15.7409 14.3866 16.6559 14.1796 17.3669 14.6026L20.0099 16.1786C20.3749 16.3956 20.5629 16.8196 20.4799 17.2346ZM14.4999 6.49957C14.4999 6.22357 14.7239 5.99957 14.9999 5.99957H16.9999V3.99957C16.9999 3.72357 17.2239 3.49957 17.4999 3.49957C17.7759 3.49957 17.9999 3.72357 17.9999 3.99957V5.99957H19.9999C20.2759 5.99957 20.4999 6.22357 20.4999 6.49957C20.4999 6.77557 20.2759 6.99957 19.9999 6.99957H17.9999V8.99957C17.9999 9.27557 17.7759 9.49957 17.4999 9.49957C17.2239 9.49957 16.9999 9.27557 16.9999 8.99957V6.99957H14.9999C14.7239 6.99957 14.4999 6.77557 14.4999 6.49957Z"
        fill="#A3E9FF" />
</svg>