<svg xmlns="http://www.w3.org/2000/svg" width="24" height="24" viewBox="0 0 24 24" fill="none">
    <path
        d="M20.5229 15.3199L17.8798 13.7439C16.7128 13.0479 15.2078 13.388 14.4528 14.515L13.571 15.8319C11.205 14.7349 9.26588 12.7919 8.16888 10.4159L9.48089 9.54394C10.6109 8.79294 10.9549 7.28894 10.2629 6.12094L8.69891 3.48092C8.26691 2.74992 7.41983 2.37293 6.56683 2.54193C5.19183 2.81693 3.98083 3.66092 3.24383 4.85592C2.51183 6.04392 2.30994 7.43394 2.67694 8.76794C4.34694 14.8439 9.16093 19.6549 15.2399 21.3239C15.6749 21.4429 16.114 21.5019 16.551 21.5019C17.456 21.5019 18.3479 21.2489 19.1489 20.7549C20.3429 20.0179 21.1859 18.8069 21.4609 17.4319C21.6269 16.6029 21.2509 15.7539 20.5229 15.3199ZM20.4799 17.2349C20.2589 18.3389 19.583 19.3119 18.624 19.9039C17.673 20.4899 16.563 20.6499 15.506 20.3599C9.76504 18.7839 5.21803 14.2409 3.64203 8.50293C3.34903 7.43993 3.50988 6.33095 4.09588 5.38095C4.68788 4.42195 5.65992 3.74392 6.78192 3.51992C6.84692 3.50692 6.91296 3.49994 6.97796 3.49994C7.32696 3.49994 7.65805 3.68293 7.83905 3.99093L9.40203 6.62994C9.82303 7.33994 9.61396 8.25393 8.92596 8.71093L7.26483 9.81595C7.06583 9.94895 6.98901 10.2039 7.08001 10.4249C8.29601 13.3389 10.657 15.7059 13.559 16.9199C13.782 17.0129 14.0359 16.9359 14.1669 16.7369L15.2819 15.0719C15.7419 14.3859 16.6549 14.1789 17.3669 14.6029L20.0099 16.1789C20.3749 16.3959 20.5629 16.8199 20.4799 17.2349Z"
        fill="#A3E9FF" />
</svg>
