<svg xmlns="http://www.w3.org/2000/svg" width="25" height="24" viewBox="0 0 25 24" fill="none">
    <path
        d="M12.5498 1.25C6.6218 1.25 1.7998 6.073 1.7998 12C1.7998 17.927 6.6218 22.75 12.5498 22.75C18.4778 22.75 23.2998 17.927 23.2998 12C23.2998 6.073 18.4778 1.25 12.5498 1.25ZM12.5498 21.25C7.4488 21.25 3.2998 17.101 3.2998 12C3.2998 6.899 7.4488 2.75 12.5498 2.75C17.6508 2.75 21.7998 6.899 21.7998 12C21.7998 17.101 17.6508 21.25 12.5498 21.25ZM16.7998 12C16.7998 12.414 16.4638 12.75 16.0498 12.75H13.2998V15.5C13.2998 15.914 12.9638 16.25 12.5498 16.25C12.1358 16.25 11.7998 15.914 11.7998 15.5V12.75H9.0498C8.6358 12.75 8.2998 12.414 8.2998 12C8.2998 11.586 8.6358 11.25 9.0498 11.25H11.7998V8.5C11.7998 8.086 12.1358 7.75 12.5498 7.75C12.9638 7.75 13.2998 8.086 13.2998 8.5V11.25H16.0498C16.4638 11.25 16.7998 11.586 16.7998 12Z"
        fill="#A3E9FF" />
</svg>