<svg xmlns="http://www.w3.org/2000/svg" width="24" height="25" viewBox="0 0 24 25" fill="none">
    <path
        d="M12.0009 2.8252C6.76392 2.8252 2.50287 7.08622 2.50287 12.3242C2.50287 13.6882 2.80605 15.0612 3.38105 16.2992C3.52505 16.5992 3.53589 16.9732 3.41889 17.3442L2.57782 19.8452C2.39682 20.3872 2.53803 20.9762 2.94403 21.3822C3.23203 21.6712 3.61383 21.8252 4.00483 21.8252C4.16383 21.8252 4.32388 21.7992 4.48188 21.7472L6.97504 20.9102C7.35204 20.7892 7.72693 20.8012 8.03193 20.9472C9.26493 21.5202 10.6379 21.8232 12.0019 21.8232C17.2389 21.8232 21.5009 17.5622 21.5009 12.3242C21.5009 7.08622 17.2379 2.8252 12.0009 2.8252ZM12.0009 20.8232C10.7819 20.8232 9.55595 20.5522 8.45795 20.0422C7.92695 19.7892 7.29203 19.7582 6.66303 19.9592L4.16401 20.7982C3.98001 20.8582 3.78982 20.8122 3.65082 20.6742C3.51182 20.5362 3.46482 20.3432 3.52582 20.1622L4.36884 17.6552C4.56584 17.0332 4.53585 16.3992 4.28485 15.8732C3.77285 14.7702 3.50287 13.5432 3.50287 12.3242C3.50287 7.63822 7.31492 3.8252 12.0009 3.8252C16.6879 3.8252 20.4999 7.63722 20.4999 12.3242C20.4999 17.0112 16.6879 20.8232 12.0009 20.8232ZM15.103 8.23218C14.84 7.97018 14.492 7.8252 14.122 7.8252C14.121 7.8252 14.1211 7.8252 14.1201 7.8252C13.7491 7.8252 13.3989 7.97119 13.1379 8.23419L7.64692 13.7502C7.55392 13.8442 7.50092 13.9702 7.50092 14.1032V16.3252C7.50092 16.6012 7.72492 16.8252 8.00092 16.8252H10.2241C10.3561 16.8252 10.4828 16.7732 10.5768 16.6792L16.093 11.1882C16.357 10.9262 16.5009 10.5772 16.5019 10.2062C16.5019 9.83418 16.3569 9.48517 16.0949 9.22217L15.103 8.23218ZM10.017 15.8252H8.49994V14.3092L12.331 10.4612L13.864 11.9952L10.017 15.8252ZM15.3859 10.4802L14.5729 11.2902L13.0371 9.75317L13.8459 8.94019C13.9189 8.86619 14.0171 8.8252 14.1201 8.8252H14.121C14.225 8.8252 14.322 8.86521 14.395 8.93921L15.385 9.9292C15.458 10.0032 15.499 10.1012 15.499 10.2052C15.5 10.3092 15.4589 10.4062 15.3859 10.4802Z"
        fill="#A3E9FF" />
</svg>