<svg xmlns="http://www.w3.org/2000/svg" width="25" height="24" viewBox="0 0 25 24" fill="none">
    <path
        d="M21.4141 6.20703L18.293 3.08594C17.921 2.71294 17.4049 2.5 16.8789 2.5H6.5C4.21 2.5 3 3.71 3 6V18C3 20.29 4.21 21.5 6.5 21.5H18.5C20.79 21.5 22 20.29 22 18V7.62109C22 7.09509 21.7861 6.57903 21.4141 6.20703ZM17 20.5H8V14.5C8 13.78 8.28 13.5 9 13.5H16C16.72 13.5 17 13.78 17 14.5V20.5ZM21 18C21 19.729 20.229 20.5 18.5 20.5H18V14.5C18 13.229 17.271 12.5 16 12.5H9C7.729 12.5 7 13.229 7 14.5V20.5H6.5C4.771 20.5 4 19.729 4 18V6C4 4.271 4.771 3.5 6.5 3.5H16.8789C17.1419 3.5 17.3999 3.60697 17.5859 3.79297L20.707 6.91406C20.894 7.10006 21 7.35809 21 7.62109V18ZM15.5 8C15.5 8.276 15.276 8.5 15 8.5H10C9.724 8.5 9.5 8.276 9.5 8C9.5 7.724 9.724 7.5 10 7.5H15C15.276 7.5 15.5 7.724 15.5 8Z"
        fill="#A3E9FF" />
</svg>