<svg xmlns="http://www.w3.org/2000/svg" width="25" height="24" viewBox="0 0 25 24" fill="none">
    <path
        d="M12.5 8.49997C10.57 8.49997 9 10.07 9 12C9 13.93 10.57 15.5 12.5 15.5C14.43 15.5 16 13.93 16 12C16 10.07 14.43 8.49997 12.5 8.49997ZM12.5 14.5C11.122 14.5 10 13.378 10 12C10 10.622 11.122 9.49997 12.5 9.49997C13.878 9.49997 15 10.622 15 12C15 13.378 13.879 14.5 12.5 14.5ZM21.582 14.169C20.811 13.722 20.331 12.891 20.33 12C20.329 11.11 20.806 10.28 21.585 9.82797C21.981 9.59797 22.116 9.08796 21.887 8.69196L20.215 5.80597C19.986 5.40997 19.478 5.27296 19.08 5.50296C18.303 5.95096 17.339 5.94996 16.561 5.49796C15.792 5.05296 15.315 4.22398 15.315 3.33698C15.315 2.87598 14.94 2.50098 14.478 2.50098H10.523C10.061 2.50098 9.68601 2.87598 9.68601 3.33698C9.68601 4.22498 9.20899 5.05297 8.43799 5.49997C7.66199 5.94897 6.697 5.95096 5.922 5.50296C5.523 5.27396 5.01502 5.41097 4.78602 5.80597L3.112 8.69397C2.883 9.08997 3.01899 9.59896 3.42099 9.83096C4.19099 10.277 4.67 11.106 4.672 11.996C4.674 12.887 4.197 13.719 3.417 14.171C3.225 14.282 3.087 14.462 3.03 14.677C2.973 14.891 3.00302 15.115 3.11402 15.308L4.78501 18.193C5.01501 18.59 5.524 18.726 5.922 18.497C6.698 18.05 7.662 18.051 8.43 18.497L8.43201 18.498C8.43401 18.499 8.43599 18.501 8.43799 18.502C9.20699 18.948 9.68301 19.776 9.68201 20.664C9.68201 21.125 10.057 21.5 10.518 21.5H14.477C14.938 21.5 15.313 21.125 15.313 20.665C15.313 19.777 15.791 18.948 16.562 18.501C17.337 18.051 18.302 18.05 19.078 18.498C19.475 18.727 19.984 18.59 20.214 18.195L21.888 15.306C22.118 14.91 21.981 14.401 21.582 14.169ZM19.432 17.551C18.373 17.006 17.097 17.035 16.059 17.636C15.031 18.232 14.374 19.319 14.318 20.5H10.678C10.624 19.319 9.96801 18.233 8.94001 17.636C7.90401 17.035 6.626 17.006 5.568 17.55L4.06 14.948C5.06 14.306 5.67399 13.188 5.67099 11.992C5.66799 10.805 5.056 9.69396 4.06 9.04996L5.568 6.44696C6.627 6.99196 7.90301 6.96296 8.94101 6.36096C9.96901 5.76496 10.625 4.67896 10.681 3.49796H14.318C14.374 4.67896 15.03 5.76498 16.061 6.36298C17.096 6.96298 18.372 6.99196 19.432 6.44696L20.94 9.04898C19.941 9.68998 19.329 10.807 19.331 12C19.332 13.19 19.944 14.303 20.941 14.947L19.432 17.551Z"
        fill="#A3E9FF" />
</svg>