<svg xmlns="http://www.w3.org/2000/svg" width="25" height="24" viewBox="0 0 25 24" fill="none">
    <rect x="0.299988" width="24" height="24" rx="5" fill="white" />
    <path
        d="M20.1763 4.99375C20.1576 4.88125 20.092 4.54375 19.792 4.29062C19.4451 4.00937 18.9763 4 18.8826 4C18.2263 4.00937 17.4482 4.27187 12.9107 6.16562C11.4107 6.79375 8.35448 8.11562 3.8451 10.0938C2.9076 10.4688 2.46697 10.8531 2.40135 11.3313C2.28885 12.1938 3.18884 12.475 4.06071 12.7562L4.39823 12.8688C5.06385 13.0844 6.27323 13.45 6.94823 13.4688C7.56698 13.4875 8.20447 13.2531 8.9076 12.7656C11.4857 11.0219 13.0701 9.95312 14.0263 9.31562C13.2201 10.0937 12.217 11.0406 11.7014 11.5188C11.3076 11.8844 11.0357 12.1469 10.9795 12.2031C10.867 12.325 10.7451 12.4375 10.6232 12.55C10.1263 13.0281 9.65759 13.4875 9.71384 14.1062C9.75134 14.5656 10.0795 14.9688 10.717 15.4C11.3638 15.8219 11.8701 16.1781 12.3857 16.525C12.9295 16.9 13.4826 17.275 14.1857 17.7438C14.3639 17.8563 14.5326 17.9781 14.692 18.1C15.3107 18.5406 15.9576 19 16.7545 19C16.8201 19 16.8857 19 16.9513 19C17.467 18.9531 18.142 18.5688 18.4326 17.0125C18.9107 14.425 19.9607 8.26563 20.1951 5.74375C20.2232 5.47188 20.1951 5.15312 20.167 4.99375H20.1763ZM19.2763 5.64999C19.042 8.15312 18.0014 14.275 17.5232 16.8437C17.3639 17.7156 17.0826 18.0437 16.8764 18.0625C16.3326 18.1094 15.8638 17.7719 15.2545 17.3406C15.0763 17.2187 14.8982 17.0875 14.7107 16.9656C14.0076 16.5063 13.4638 16.1312 12.9201 15.7562C12.4045 15.4 11.8888 15.0531 11.242 14.6219C10.717 14.275 10.6607 14.0781 10.6513 14.0219C10.6326 13.8438 10.9795 13.5156 11.2795 13.225C11.4013 13.1031 11.5326 12.9813 11.6545 12.85C11.7107 12.7938 11.9732 12.55 12.3389 12.2031C15.7889 8.97813 15.9951 8.67813 16.0513 8.425C16.0888 8.25625 16.0795 7.91875 15.8357 7.70312C15.6857 7.5625 15.5076 7.52499 15.3576 7.52499C15.2451 7.52499 15.1514 7.54375 15.0951 7.5625C14.9357 7.6 14.8045 7.62813 8.37322 11.9875C7.83884 12.3531 7.36072 12.55 6.96697 12.5313C6.57322 12.5313 5.7201 12.3156 4.68885 11.9781L4.34198 11.8656C3.96698 11.7437 3.40446 11.5656 3.32946 11.4719C3.32946 11.4719 3.43261 11.275 4.20136 10.9656C4.20136 10.9656 4.20134 10.9656 4.21071 10.9656C8.72009 8.98749 11.767 7.675 13.267 7.04688C17.2701 5.37813 18.3763 4.96563 18.892 4.95625C18.9951 4.95625 19.1357 4.98438 19.192 5.03126C19.2201 5.05001 19.2388 5.09688 19.2482 5.16251C19.267 5.27501 19.2857 5.5 19.267 5.65938L19.2763 5.64999Z"
        fill="#131B2C" stroke="black" stroke-width="0.5" />
</svg>