<svg width="25" height="24" viewBox="0 0 25 24" fill="none" xmlns="http://www.w3.org/2000/svg">
<path d="M21.5 5.5H17.941C16.86 5.5 16.774 5.24201 16.518 4.47501L16.315 3.868C16.043 3.05 15.28 2.5 14.418 2.5H10.58C9.718 2.5 8.955 3.05 8.683 3.868L8.481 4.47501C8.225 5.24201 8.139 5.5 7.058 5.5H3.5C3.224 5.5 3 5.724 3 6C3 6.276 3.224 6.5 3.5 6.5H5.032L5.814 18.232C5.953 20.309 7.225 21.5 9.306 21.5H15.693C17.774 21.5 19.047 20.309 19.185 18.232L19.967 6.5H21.5C21.776 6.5 22 6.276 22 6C22 5.724 21.776 5.5 21.5 5.5ZM9.632 4.18401C9.769 3.77501 10.15 3.5 10.581 3.5H14.419C14.85 3.5 15.231 3.77401 15.367 4.18401L15.57 4.791C15.651 5.033 15.737 5.275 15.855 5.5H9.146C9.264 5.274 9.35 5.033 9.431 4.791L9.632 4.18401ZM18.188 18.166C18.085 19.715 17.246 20.5 15.694 20.5H9.30701C7.75501 20.5 6.916 19.715 6.813 18.166L6.035 6.5H7.059C7.183 6.5 7.284 6.486 7.394 6.479C7.429 6.487 7.463 6.5 7.5 6.5H17.5C17.538 6.5 17.571 6.486 17.606 6.479C17.716 6.487 17.817 6.5 17.941 6.5H18.965L18.188 18.166ZM15 11V16C15 16.276 14.776 16.5 14.5 16.5C14.224 16.5 14 16.276 14 16V11C14 10.724 14.224 10.5 14.5 10.5C14.776 10.5 15 10.724 15 11ZM11 11V16C11 16.276 10.776 16.5 10.5 16.5C10.224 16.5 10 16.276 10 16V11C10 10.724 10.224 10.5 10.5 10.5C10.776 10.5 11 10.724 11 11Z" fill="#A3E9FF"/>
</svg>
