<svg xmlns="http://www.w3.org/2000/svg" width="24" height="25" viewBox="0 0 24 25" fill="none">
  <path d="M12 1.82495C6.21 1.82495 1.5 6.53495 1.5 12.325C1.5 18.115 6.21 22.825 12 22.825C17.79 22.825 22.5 18.115 22.5 12.325C22.5 6.53495 17.79 1.82495 12 1.82495ZM12 21.825C6.762 21.825 2.5 17.563 2.5 12.325C2.5 7.08695 6.762 2.82495 12 2.82495C17.238 2.82495 21.5 7.08695 21.5 12.325C21.5 17.563 17.238 21.825 12 21.825ZM15.115 9.74194H13.554V8.53394C13.554 7.83594 13.207 7.18796 12.626 6.80096C12.282 6.57196 11.862 6.51593 11.473 6.64093C11.082 6.76693 10.776 7.05993 10.625 7.46393L9.526 10.798H8.04102C7.32802 10.798 6.74902 11.378 6.74902 12.09V15.785C6.74902 16.497 7.32802 17.077 8.04102 17.077H14.0601C15.4451 17.077 15.795 16.373 16.037 15.653L17.093 12.486C17.35 11.713 17.291 11.008 16.927 10.504C16.677 10.155 16.16 9.74194 15.115 9.74194ZM7.75 15.783V12.088C7.75 11.927 7.88099 11.796 8.04199 11.796H9V16.074H8.04199C7.88099 16.075 7.75 15.944 7.75 15.783ZM16.144 12.1669L15.088 15.3339C14.918 15.8429 14.841 16.075 14.061 16.075H10V11.7609C10.164 11.7199 10.309 11.6189 10.363 11.4529L11.568 7.79395C11.618 7.66095 11.723 7.60994 11.781 7.59094C11.839 7.57194 11.955 7.55296 12.072 7.63196C12.374 7.83296 12.554 8.16996 12.554 8.53296V10.241C12.554 10.517 12.778 10.741 13.054 10.741H15.115C15.458 10.741 15.91 10.8009 16.116 11.0859C16.284 11.3199 16.295 11.7139 16.144 12.1669Z" fill="#A3E9FF"/>
</svg>