<svg width="25" height="24" viewBox="0 0 25 24" fill="none" xmlns="http://www.w3.org/2000/svg">
<g clip-path="url(#clip0_1841_2820)">
<path d="M4.92645 0C2.49887 0 0.544189 1.95468 0.544189 4.38226V19.6178C0.544189 22.0453 2.49887 24 4.92645 24H13.184V14.6175H10.703V11.2395H13.184V8.35351C13.184 6.08611 14.6499 4.00426 18.0267 4.00426C19.3939 4.00426 20.405 4.13551 20.405 4.13551L20.3254 7.29002C20.3254 7.29002 19.2943 7.28028 18.1692 7.28028C16.9515 7.28028 16.7562 7.84135 16.7562 8.77279V11.2395H20.4222L20.2624 14.6175H16.7562V24H20.1619C22.5895 24 24.5442 22.0454 24.5442 19.6178V4.38228C24.5442 1.9547 22.5895 2.4e-05 20.1619 2.4e-05H4.92642L4.92645 0Z" fill="#F1F1F1"/>
</g>
<defs>
<clipPath id="clip0_1841_2820">
<rect width="24" height="24" fill="white" transform="translate(0.544189)"/>
</clipPath>
</defs>
</svg>
