<svg width="25" height="24" viewBox="0 0 25 24" fill="none" xmlns="http://www.w3.org/2000/svg">
<path d="M12.5 21.7501C12.394 21.7501 12.2879 21.728 12.1889 21.683C11.8619 21.534 4.16598 17.9651 2.93198 11.6091C2.45498 9.15006 2.93398 6.75105 4.21298 5.19305C5.24798 3.93105 6.73594 3.26003 8.51694 3.25103C8.52594 3.25103 8.53494 3.25103 8.54294 3.25103C10.5749 3.25103 11.814 4.40806 12.499 5.39306C13.187 4.40406 14.4359 3.24203 16.4809 3.25103C18.2629 3.26003 19.7519 3.93105 20.7879 5.19305C22.0649 6.75005 22.5429 9.14904 22.0649 11.61C20.8329 17.966 13.1359 21.5361 12.8089 21.6841C12.7119 21.7281 12.606 21.7501 12.5 21.7501ZM8.54196 4.75005C8.53596 4.75005 8.53099 4.75005 8.52499 4.75005C7.18699 4.75605 6.12702 5.22503 5.37302 6.14403C4.37402 7.36103 4.013 9.29705 4.405 11.323C5.36 16.247 11.093 19.447 12.5 20.165C13.907 19.447 19.64 16.247 20.594 11.323C20.988 9.29605 20.627 7.36003 19.63 6.14403C18.876 5.22603 17.8159 4.75803 16.4749 4.75103C16.4689 4.75103 16.463 4.75103 16.458 4.75103C14.086 4.75103 13.245 7.12806 13.211 7.22906C13.107 7.53206 12.8209 7.73803 12.5009 7.73803C12.4989 7.73803 12.4979 7.73803 12.4969 7.73803C12.1759 7.73703 11.8899 7.53204 11.7879 7.22704C11.7549 7.12704 10.913 4.75005 8.54196 4.75005Z" fill="white"/>
</svg>
