<svg width="25" height="24" viewBox="0 0 25 24" fill="none" xmlns="http://www.w3.org/2000/svg">
<g clip-path="url(#clip0_1841_2822)">
<path d="M24.4669 7.09551C24.4534 6.08613 24.2645 5.08677 23.9085 4.14216C23.5997 3.34538 23.1282 2.62177 22.524 2.01754C21.9198 1.41332 21.1961 0.941782 20.3994 0.633052C19.4669 0.283017 18.4818 0.0937467 17.486 0.0733008C16.2039 0.015993 15.7974 0 12.5429 0C9.2883 0 8.87116 8.93672e-08 7.59839 0.0733008C6.60304 0.093897 5.6184 0.283165 4.68635 0.633052C3.88945 0.941567 3.16572 1.41303 2.56147 2.01728C1.95722 2.62153 1.48576 3.34526 1.17724 4.14216C0.826505 5.07392 0.637645 6.05879 0.618823 7.0542C0.561515 8.33763 0.544189 8.74411 0.544189 11.9987C0.544189 15.2532 0.544189 15.669 0.618823 16.9431C0.638814 17.94 0.82673 18.9236 1.17724 19.8578C1.48627 20.6545 1.95809 21.3779 2.56254 21.9819C3.16699 22.5859 3.89079 23.0572 4.68768 23.3656C5.61718 23.7297 6.60199 23.9325 7.59972 23.9653C8.88315 24.0227 9.28964 24.04 12.5442 24.04C15.7987 24.04 16.2159 24.04 17.4887 23.9653C18.4844 23.9457 19.4696 23.7569 20.402 23.4069C21.1986 23.0978 21.922 22.6262 22.5262 22.022C23.1304 21.4178 23.6021 20.6944 23.9111 19.8978C24.2617 18.9649 24.4496 17.9813 24.4696 16.9831C24.5269 15.701 24.5442 15.2945 24.5442 12.0386C24.5415 8.7841 24.5415 8.37095 24.4669 7.09551ZM12.5349 18.1533C9.13104 18.1533 6.3736 15.3958 6.3736 11.992C6.3736 8.58818 9.13104 5.83074 12.5349 5.83074C14.1689 5.83074 15.7361 6.47987 16.8915 7.63533C18.047 8.7908 18.6961 10.3579 18.6961 11.992C18.6961 13.6261 18.047 15.1932 16.8915 16.3487C15.7361 17.5041 14.1689 18.1533 12.5349 18.1533ZM18.9413 7.03954C18.7526 7.03971 18.5657 7.00267 18.3913 6.93053C18.217 6.8584 18.0585 6.75258 17.9251 6.61913C17.7916 6.48569 17.6858 6.32724 17.6137 6.15285C17.5415 5.97846 17.5045 5.79156 17.5047 5.60284C17.5047 5.41426 17.5418 5.22753 17.614 5.0533C17.6861 4.87907 17.7919 4.72077 17.9253 4.58742C18.0586 4.45407 18.2169 4.34829 18.3911 4.27613C18.5654 4.20396 18.7521 4.16681 18.9407 4.16681C19.1293 4.16681 19.316 4.20396 19.4902 4.27613C19.6645 4.34829 19.8228 4.45407 19.9561 4.58742C20.0895 4.72077 20.1952 4.87907 20.2674 5.0533C20.3396 5.22753 20.3767 5.41426 20.3767 5.60284C20.3767 6.39716 19.7343 7.03954 18.9413 7.03954Z" fill="#F1F1F1"/>
<path d="M12.5442 15.75C14.6153 15.75 16.2942 14.0711 16.2942 12C16.2942 9.92893 14.6153 8.25 12.5442 8.25C10.4731 8.25 8.79419 9.92893 8.79419 12C8.79419 14.0711 10.4731 15.75 12.5442 15.75Z" fill="#F1F1F1"/>
</g>
<defs>
<clipPath id="clip0_1841_2822">
<rect width="24" height="24" fill="white" transform="translate(0.544189)"/>
</clipPath>
</defs>
</svg>
