<svg width="34" height="34" viewBox="0 0 34 34" fill="none" xmlns="http://www.w3.org/2000/svg">
<circle cx="17" cy="17" r="16.75" stroke="white" stroke-width="0.5"/>
<path d="M21.5 22V23C21.5 25.29 20.29 26.5 18 26.5H12C9.71 26.5 8.5 25.29 8.5 23V11C8.5 8.71 9.71 7.5 12 7.5H18C20.29 7.5 21.5 8.71 21.5 11V12C21.5 12.276 21.276 12.5 21 12.5C20.724 12.5 20.5 12.276 20.5 12V11C20.5 9.271 19.729 8.5 18 8.5H12C10.271 8.5 9.5 9.271 9.5 11V23C9.5 24.729 10.271 25.5 12 25.5H18C19.729 25.5 20.5 24.729 20.5 23V22C20.5 21.724 20.724 21.5 21 21.5C21.276 21.5 21.5 21.724 21.5 22ZM27.461 17.191C27.512 17.069 27.512 16.931 27.461 16.809C27.436 16.747 27.399 16.692 27.353 16.646L24.353 13.646C24.158 13.451 23.841 13.451 23.646 13.646C23.451 13.841 23.451 14.158 23.646 14.353L25.792 16.499H14C13.724 16.499 13.5 16.723 13.5 16.999C13.5 17.275 13.724 17.499 14 17.499H25.793L23.647 19.645C23.452 19.84 23.452 20.157 23.647 20.352C23.745 20.45 23.873 20.498 24.001 20.498C24.129 20.498 24.257 20.449 24.355 20.352L27.355 17.352C27.399 17.308 27.436 17.252 27.461 17.191Z" fill="white"/>
</svg>
