<svg width="56" height="32" viewBox="0 0 56 32" fill="none" xmlns="http://www.w3.org/2000/svg">
<path fill-rule="evenodd" clip-rule="evenodd" d="M40.1011 11.3418C43.233 11.3418 45.7719 8.80283 45.7719 5.67089C45.7719 2.53894 43.233 0 40.1011 0C36.9691 0 34.4302 2.53894 34.4302 5.67089C34.4302 8.80283 36.9691 11.3418 40.1011 11.3418ZM15.7716 32C7.10661 32 0 25.2876 0 16.8835C0 8.62511 5.57203 1.82278 12.5593 1.82278C19.1585 1.82278 24.5496 7.31504 25.0764 14.2618V2.60254H31.5949V31.2202H25.0764V30.4178C25.0764 29.4567 25.3001 28.5653 25.6255 27.7489L25.6267 27.7461L25.8174 27.2867C25.1528 28.6693 24.0883 29.8353 22.7102 30.4627C20.6425 31.4313 18.2596 32 15.7716 32ZM25.0764 16.8835V15.7923H18.6519V15.3797C18.6519 11.2772 15.8854 8.05048 12.5593 8.05048C10.9203 8.05048 9.40561 9.00729 8.2874 10.6078C7.16928 12.2083 6.46674 14.4309 6.46674 16.8835C6.46674 21.7371 10.605 25.7723 15.7716 25.7723C20.9885 25.7723 25.0764 21.7385 25.0764 16.8835ZM26.7488 24.9996L26.2036 26.3567L26.7643 25.0067L26.7488 24.9996ZM44.4729 31.5947C50.3051 31.5947 55.0884 27.0646 55.0884 21.3927C55.0884 15.8191 51.338 11.2283 46.635 11.2283C42.1933 11.2283 38.5646 14.935 38.21 19.6233L38.2052 13.5875L38.0172 13.5269C36.3547 12.9922 35.4057 12.687 33.8263 10.3289L33.8226 31.0685H38.21V30.5269C38.21 29.8783 38.0595 29.2767 37.8404 28.7257L37.8397 28.7238L37.7113 28.4137C38.1586 29.3469 38.8751 30.1338 39.8026 30.5572C41.1944 31.2109 42.7983 31.5947 44.4729 31.5947ZM38.21 21.3927V20.6562H42.5342V20.3778C42.5342 17.609 44.3963 15.4313 46.635 15.4313C47.7382 15.4313 48.7577 16.0771 49.5103 17.1573C50.2629 18.2374 50.7358 19.7375 50.7358 21.3927C50.7358 24.6684 47.9504 27.3917 44.4729 27.3917C40.9615 27.3917 38.21 24.6693 38.21 21.3927ZM37.0844 26.8702L37.4513 27.7861L37.074 26.875L37.0844 26.8702Z" fill="url(#paint0_linear_1841_2413)"/>
<defs>
<linearGradient id="paint0_linear_1841_2413" x1="9.82249e-08" y1="20.8372" x2="65.5934" y2="19.7348" gradientUnits="userSpaceOnUse">
<stop offset="0.0343384" stop-color="#A3E9FF"/>
<stop offset="1" stop-color="#F18FF3"/>
</linearGradient>
</defs>
</svg>
