<svg width="24" height="24" viewBox="0 0 24 24" fill="none" xmlns="http://www.w3.org/2000/svg">
<path d="M10.27 21C10.27 21.69 9.71002 22.25 9.02002 22.25C8.33102 22.25 7.76501 21.69 7.76501 21C7.76501 20.31 8.32001 19.75 9.01001 19.75H9.02002C9.71002 19.75 10.27 20.31 10.27 21ZM17.02 19.75H17.01C16.32 19.75 15.765 20.31 15.765 21C15.765 21.69 16.33 22.25 17.02 22.25C17.71 22.25 18.27 21.69 18.27 21C18.27 20.31 17.71 19.75 17.02 19.75ZM21.705 8.49197L20.691 14.658C20.428 16.104 19.774 17.75 17 17.75H8.73401C7.37501 17.75 6.20396 16.735 6.01196 15.389L4.50195 4.82397C4.41395 4.21197 3.88301 3.75098 3.26501 3.75098H3C2.586 3.75098 2.25 3.41498 2.25 3.00098C2.25 2.58698 2.586 2.25098 3 2.25098H3.26599C4.62499 2.25098 5.79604 3.26597 5.98804 4.61197L6.07996 5.25098H19C19.818 5.25098 20.5881 5.61097 21.1121 6.23897C21.6351 6.86597 21.852 7.68797 21.705 8.49197ZM19.213 14.403L19.3199 13.75H13C12.586 13.75 12.25 13.414 12.25 13C12.25 12.586 12.586 12.25 13 12.25H19.567L20.2271 8.23596C20.2961 7.85796 20.198 7.48397 19.959 7.19897C19.72 6.91397 19.371 6.74997 18.999 6.74997H6.29297L7.49695 15.177C7.58495 15.789 8.11601 16.25 8.73401 16.25H17C18.597 16.25 18.986 15.654 19.213 14.403Z" fill="white"/>
</svg>
