<svg width="34" height="34" viewBox="0 0 34 34" fill="none" xmlns="http://www.w3.org/2000/svg">
<path d="M15.27 26C15.27 26.69 14.71 27.25 14.02 27.25C13.331 27.25 12.765 26.69 12.765 26C12.765 25.31 13.32 24.75 14.01 24.75H14.02C14.71 24.75 15.27 25.31 15.27 26ZM22.02 24.75H22.01C21.32 24.75 20.765 25.31 20.765 26C20.765 26.69 21.33 27.25 22.02 27.25C22.71 27.25 23.27 26.69 23.27 26C23.27 25.31 22.71 24.75 22.02 24.75ZM26.705 13.492L25.691 19.658C25.428 21.104 24.774 22.75 22 22.75H13.734C12.375 22.75 11.204 21.735 11.012 20.389L9.50195 9.82397C9.41395 9.21197 8.88301 8.75098 8.26501 8.75098H8C7.586 8.75098 7.25 8.41498 7.25 8.00098C7.25 7.58698 7.586 7.25098 8 7.25098H8.26599C9.62499 7.25098 10.796 8.26597 10.988 9.61197L11.08 10.251H24C24.818 10.251 25.5881 10.611 26.1121 11.239C26.6351 11.866 26.852 12.688 26.705 13.492ZM24.213 19.403L24.3199 18.75H18C17.586 18.75 17.25 18.414 17.25 18C17.25 17.586 17.586 17.25 18 17.25H24.567L25.2271 13.236C25.2961 12.858 25.198 12.484 24.959 12.199C24.72 11.914 24.371 11.75 23.999 11.75H11.293L12.4969 20.177C12.5849 20.789 13.116 21.25 13.734 21.25H22C23.597 21.25 23.986 20.654 24.213 19.403Z" fill="white"/>
<circle cx="17" cy="17" r="16.75" stroke="white" stroke-width="0.5"/>
</svg>
