<svg width="24" height="25" viewBox="0 0 24 25" fill="none" xmlns="http://www.w3.org/2000/svg">
<path d="M10.27 21.3332C10.27 22.0232 9.71002 22.5832 9.02002 22.5832C8.33102 22.5832 7.76501 22.0232 7.76501 21.3332C7.76501 20.6432 8.32001 20.0832 9.01001 20.0832H9.02002C9.71002 20.0832 10.27 20.6432 10.27 21.3332ZM17.02 20.0832H17.01C16.32 20.0832 15.765 20.6432 15.765 21.3332C15.765 22.0232 16.33 22.5832 17.02 22.5832C17.71 22.5832 18.27 22.0232 18.27 21.3332C18.27 20.6432 17.71 20.0832 17.02 20.0832ZM21.705 8.82523L20.691 14.9912C20.428 16.4372 19.774 18.0832 17 18.0832H8.73401C7.37501 18.0832 6.20396 17.0682 6.01196 15.7222L4.50195 5.15723C4.41395 4.54523 3.88301 4.08423 3.26501 4.08423H3C2.586 4.08423 2.25 3.74823 2.25 3.33423C2.25 2.92023 2.586 2.58423 3 2.58423H3.26599C4.62499 2.58423 5.79604 3.59922 5.98804 4.94522L6.07996 5.58423H19C19.818 5.58423 20.5881 5.94422 21.1121 6.57222C21.6351 7.19922 21.852 8.02123 21.705 8.82523ZM19.213 14.7362L19.3199 14.0832H13C12.586 14.0832 12.25 13.7472 12.25 13.3332C12.25 12.9192 12.586 12.5832 13 12.5832H19.567L20.2271 8.56921C20.2961 8.19121 20.198 7.81723 19.959 7.53223C19.72 7.24723 19.371 7.08322 18.999 7.08322H6.29297L7.49695 15.5102C7.58495 16.1222 8.11601 16.5832 8.73401 16.5832H17C18.597 16.5832 18.986 15.9872 19.213 14.7362Z" fill="#131B2C"/>
</svg>
