<svg width="25" height="24" viewBox="0 0 25 24" fill="none" xmlns="http://www.w3.org/2000/svg">
<g clip-path="url(#clip0_1841_2827)">
<path d="M20.5442 7.53125C19.9609 7.79167 19.3306 7.96875 18.6536 8.0625C19.3619 7.64583 19.8463 7.03646 20.1067 6.23438C19.4296 6.63021 18.7317 6.89583 18.0129 7.03125C17.3775 6.34375 16.5806 6 15.6223 6C14.7161 6 13.9426 6.32031 13.302 6.96094C12.6614 7.60156 12.3411 8.375 12.3411 9.28125C12.3411 9.58333 12.3671 9.83333 12.4192 10.0312C11.0754 9.95833 9.81502 9.61979 8.63794 9.01562C7.46086 8.41146 6.46086 7.60417 5.63794 6.59375C5.33586 7.11458 5.18481 7.66667 5.18481 8.25C5.18481 9.4375 5.65877 10.349 6.60669 10.9844C6.11711 10.974 5.59627 10.8385 5.04419 10.5781V10.6094C5.04419 11.3906 5.30461 12.0859 5.82544 12.6953C6.34627 13.3047 6.9869 13.6823 7.74731 13.8281C7.44523 13.9115 7.17961 13.9531 6.95044 13.9531C6.81502 13.9531 6.6119 13.9323 6.34106 13.8906C6.55981 14.5469 6.94784 15.0885 7.50513 15.5156C8.06242 15.9427 8.69523 16.1615 9.40356 16.1719C8.19523 17.1094 6.83586 17.5781 5.32544 17.5781C5.05461 17.5781 4.79419 17.5625 4.54419 17.5312C6.08586 18.5104 7.76294 19 9.57544 19C10.7421 19 11.8359 18.8151 12.8567 18.4453C13.8775 18.0755 14.7525 17.5807 15.4817 16.9609C16.2109 16.3411 16.8385 15.6276 17.3645 14.8203C17.8905 14.013 18.2812 13.1693 18.5364 12.2891C18.7916 11.4089 18.9192 10.5312 18.9192 9.65625C18.9192 9.46875 18.914 9.32812 18.9036 9.23438C19.5598 8.76562 20.1067 8.19792 20.5442 7.53125ZM24.5442 4.5V19.5C24.5442 20.7396 24.1041 21.7995 23.2239 22.6797C22.3437 23.5599 21.2838 24 20.0442 24H5.04419C3.80461 24 2.74471 23.5599 1.8645 22.6797C0.984294 21.7995 0.544189 20.7396 0.544189 19.5V4.5C0.544189 3.26042 0.984294 2.20052 1.8645 1.32031C2.74471 0.440104 3.80461 0 5.04419 0H20.0442C21.2838 0 22.3437 0.440104 23.2239 1.32031C24.1041 2.20052 24.5442 3.26042 24.5442 4.5Z" fill="#F1F1F1"/>
</g>
<defs>
<clipPath id="clip0_1841_2827">
<rect width="24" height="24" fill="white" transform="translate(0.544189)"/>
</clipPath>
</defs>
</svg>
