<svg width="25" height="24" viewBox="0 0 25 24" fill="none" xmlns="http://www.w3.org/2000/svg">
<g clip-path="url(#clip0_1841_2825)">
<path d="M14.9036 18.3594V15.9062C14.9036 15.3854 14.7525 15.125 14.4504 15.125C14.2734 15.125 14.1015 15.2083 13.9348 15.375V18.875C14.1015 19.0417 14.2734 19.125 14.4504 19.125C14.7525 19.125 14.9036 18.8698 14.9036 18.3594ZM17.7786 16.4531H18.8098V15.9219C18.8098 15.3906 18.6379 15.125 18.2942 15.125C17.9504 15.125 17.7786 15.3906 17.7786 15.9219V16.4531ZM8.85669 12.2969V13.3906H7.60669V20H6.45044V13.3906H5.23169V12.2969H8.85669ZM11.9973 14.2656V20H10.9504V19.375C10.5442 19.8438 10.1484 20.0781 9.76294 20.0781C9.41919 20.0781 9.20044 19.9323 9.10669 19.6406C9.04419 19.4635 9.01294 19.1823 9.01294 18.7969V14.2656H10.0442V18.4844C10.0442 18.7344 10.0494 18.8698 10.0598 18.8906C10.0702 19.0469 10.1484 19.125 10.2942 19.125C10.5025 19.125 10.7213 18.9635 10.9504 18.6406V14.2656H11.9973ZM15.9348 16V18.2812C15.9348 18.8229 15.8984 19.2031 15.8254 19.4219C15.7004 19.8594 15.4244 20.0781 14.9973 20.0781C14.6327 20.0781 14.2786 19.8646 13.9348 19.4375V20H12.8879V12.2969H13.9348V14.8125C14.2681 14.3958 14.6223 14.1875 14.9973 14.1875C15.4244 14.1875 15.7004 14.4062 15.8254 14.8438C15.8984 15.0625 15.9348 15.4479 15.9348 16ZM19.8567 18.0156V18.1562C19.8567 18.4583 19.8463 18.6823 19.8254 18.8281C19.7942 19.0573 19.7161 19.2656 19.5911 19.4531C19.3098 19.8698 18.8931 20.0781 18.3411 20.0781C17.7994 20.0781 17.3775 19.8802 17.0754 19.4844C16.8567 19.2031 16.7473 18.7552 16.7473 18.1406V16.125C16.7473 15.5104 16.8515 15.0625 17.0598 14.7812C17.3619 14.3854 17.7786 14.1875 18.3098 14.1875C18.8411 14.1875 19.2473 14.3854 19.5286 14.7812C19.7473 15.0833 19.8567 15.5312 19.8567 16.125V17.3125H17.7786V18.3281C17.7786 18.8594 17.9556 19.125 18.3098 19.125C18.5598 19.125 18.7161 18.9896 18.7786 18.7188C18.7786 18.7083 18.7812 18.6719 18.7864 18.6094C18.7916 18.5469 18.7942 18.4609 18.7942 18.3516V18.0156H19.8567ZM12.8098 5.14062V7.57812C12.8098 8.10938 12.6431 8.375 12.3098 8.375C11.9765 8.375 11.8098 8.10938 11.8098 7.57812V5.14062C11.8098 4.59896 11.9765 4.32812 12.3098 4.32812C12.6431 4.32812 12.8098 4.59896 12.8098 5.14062ZM21.1379 16.2812C21.1379 14.4375 21.039 13.0833 20.8411 12.2188C20.7369 11.7604 20.5129 11.3776 20.1692 11.0703C19.8254 10.763 19.4296 10.5833 18.9817 10.5312C17.565 10.375 15.4192 10.2969 12.5442 10.2969C9.67961 10.2969 7.53898 10.375 6.12231 10.5312C5.66398 10.5833 5.26554 10.763 4.927 11.0703C4.58846 11.3776 4.36711 11.7604 4.26294 12.2188C4.05461 13.125 3.95044 14.4792 3.95044 16.2812C3.95044 18.1146 4.05461 19.4688 4.26294 20.3438C4.36711 20.7917 4.58846 21.1719 4.927 21.4844C5.26554 21.7969 5.65877 21.9792 6.10669 22.0312C7.53377 22.1875 9.67961 22.2656 12.5442 22.2656C15.4088 22.2656 17.5546 22.1875 18.9817 22.0312C19.4296 21.9792 19.8228 21.7969 20.1614 21.4844C20.4999 21.1719 20.7213 20.7917 20.8254 20.3438C21.0338 19.4688 21.1379 18.1146 21.1379 16.2812ZM9.34106 6.10938L10.7473 1.48438H9.57544L8.77856 4.53125L7.95044 1.48438H6.73169C6.80461 1.72396 6.9244 2.08333 7.09106 2.5625L7.46606 3.64062C7.83065 4.71354 8.07023 5.53646 8.18481 6.10938V9.25H9.34106V6.10938ZM13.8567 7.375V5.34375C13.8567 4.73958 13.7473 4.28646 13.5286 3.98438C13.2265 3.58854 12.8202 3.39062 12.3098 3.39062C11.7786 3.39062 11.3723 3.58854 11.0911 3.98438C10.8723 4.28646 10.7629 4.73958 10.7629 5.34375V7.375C10.7629 7.97917 10.8723 8.43229 11.0911 8.73438C11.3723 9.13021 11.7786 9.32812 12.3098 9.32812C12.8202 9.32812 13.2265 9.13021 13.5286 8.73438C13.7473 8.45312 13.8567 8 13.8567 7.375ZM16.6848 9.25H17.7317V3.46875H16.6848V7.89062C16.4556 8.21354 16.2369 8.375 16.0286 8.375C15.8723 8.375 15.789 8.29167 15.7786 8.125C15.7681 8.10417 15.7629 7.96875 15.7629 7.71875V3.46875H14.7161V8.04688C14.7161 8.43229 14.7473 8.71875 14.8098 8.90625C14.9244 9.1875 15.1484 9.32812 15.4817 9.32812C15.8567 9.32812 16.2577 9.09375 16.6848 8.625V9.25ZM24.5442 4.5V19.5C24.5442 20.7396 24.1041 21.7995 23.2239 22.6797C22.3437 23.5599 21.2838 24 20.0442 24H5.04419C3.80461 24 2.74471 23.5599 1.8645 22.6797C0.984294 21.7995 0.544189 20.7396 0.544189 19.5V4.5C0.544189 3.26042 0.984294 2.20052 1.8645 1.32031C2.74471 0.440104 3.80461 0 5.04419 0H20.0442C21.2838 0 22.3437 0.440104 23.2239 1.32031C24.1041 2.20052 24.5442 3.26042 24.5442 4.5Z" fill="#F1F1F1"/>
</g>
<defs>
<clipPath id="clip0_1841_2825">
<rect width="24" height="24" fill="white" transform="translate(0.544189)"/>
</clipPath>
</defs>
</svg>
